<?xml version="1.0" standalone="no"?>
<!DOCTYPE svg PUBLIC "-//W3C//DTD SVG 20010904//EN"
 "http://www.w3.org/TR/2001/REC-SVG-20010904/DTD/svg10.dtd">
<svg version="1.0" xmlns="http://www.w3.org/2000/svg"
 width="587.000000pt" height="995.000000pt" viewBox="0 0 587.000000 995.000000"
 preserveAspectRatio="xMidYMid meet">

<g transform="translate(0.000000,995.000000) scale(0.100000,-0.100000)"
fill="#000000" stroke="none">
<path d="M2680 9804 c-19 -2 -84 -9 -145 -15 -867 -88 -1646 -633 -2035 -1424
-139 -283 -216 -548 -250 -857 -14 -136 -12 -431 5 -568 58 -488 261 -958 573
-1330 108 -130 299 -312 424 -404 56 -42 115 -87 130 -99 l26 -22 -64 -295
c-35 -162 -77 -360 -94 -440 -26 -126 -102 -430 -210 -840 -28 -107 -495
-1895 -561 -2150 -54 -207 -34 -274 135 -438 169 -165 361 -295 611 -417 360
-175 696 -273 1155 -337 129 -18 749 -18 880 0 551 75 849 157 1205 331 249
122 471 278 651 456 91 90 123 143 131 219 5 51 -5 96 -117 516 -25 91 -107
407 -276 1065 -24 94 -64 247 -89 340 -46 179 -106 410 -224 865 -89 346 -271
1106 -271 1133 0 7 55 53 122 102 158 116 396 351 510 505 283 380 446 790
503 1265 21 166 16 476 -9 645 -84 562 -345 1067 -762 1470 -401 389 -918 636
-1474 706 -115 14 -414 26 -480 18z m432 -310 c936 -119 1701 -786 1937 -1687
57 -216 65 -289 66 -567 0 -221 -3 -271 -23 -375 -45 -244 -97 -405 -202 -620
-118 -241 -259 -435 -456 -625 -144 -138 -270 -233 -490 -366 l-21 -12 38
-154 c20 -84 58 -243 84 -353 97 -412 188 -776 335 -1340 82 -319 182 -704
221 -855 215 -829 282 -1088 314 -1205 l36 -130 -73 -68 c-320 -299 -748 -508
-1248 -611 -733 -149 -1445 -98 -2057 148 -297 119 -558 276 -728 438 l-98 94
27 104 c15 58 40 156 57 218 72 275 93 357 134 512 24 91 62 237 85 324 22 88
63 243 90 345 27 102 74 285 105 406 31 121 67 258 80 305 84 309 194 760 250
1025 36 171 88 415 115 543 28 128 50 237 50 241 0 5 -45 37 -100 70 -165 102
-298 207 -436 345 -361 362 -572 786 -649 1301 -22 147 -22 451 0 600 72 488
279 912 617 1261 330 340 724 558 1191 659 212 45 525 58 749 29z"/>
<path d="M2550 8990 c0 -55 17 -69 22 -17 l3 32 20 -32 c29 -49 45 -42 45 17
0 28 -4 50 -10 50 -5 0 -10 -15 -10 -32 l-1 -33 -27 33 c-15 18 -30 32 -34 32
-5 0 -8 -22 -8 -50z"/>
<path d="M2682 8993 c-21 -49 -21 -66 0 -45 16 16 55 15 61 0 2 -7 8 -10 12
-6 10 9 -27 98 -41 98 -6 0 -21 -21 -32 -47z m48 -15 c0 -5 -7 -8 -15 -8 -15
0 -20 21 -8 33 7 7 23 -11 23 -25z"/>
<path d="M2770 9030 c0 -5 9 -10 19 -10 16 0 21 -8 24 -42 l4 -43 1 43 c1 29
6 42 16 42 8 0 18 5 21 10 4 6 -12 10 -39 10 -25 0 -46 -4 -46 -10z"/>
<path d="M2880 8990 c0 -27 5 -50 10 -50 6 0 10 23 10 50 0 28 -4 50 -10 50
-5 0 -10 -22 -10 -50z"/>
<path d="M2936 9018 c-21 -29 -20 -41 3 -62 29 -26 73 -17 85 16 19 55 -55 93
-88 46z m69 -28 c0 -20 -6 -26 -26 -28 -17 -2 -29 3 -32 12 -11 28 4 47 32 44
20 -2 26 -8 26 -28z"/>
<path d="M3062 8988 c1 -36 2 -43 5 -20 5 40 12 40 38 2 30 -45 45 -38 45 20
0 28 -4 50 -10 50 -5 0 -10 -15 -10 -32 l-1 -33 -28 33 c-15 17 -31 32 -34 32
-4 0 -6 -24 -5 -52z"/>
<path d="M3190 8993 c-20 -47 -20 -67 2 -45 16 16 55 15 61 0 2 -7 7 -10 11
-7 9 8 -31 99 -43 99 -6 0 -19 -21 -31 -47z m48 -11 c2 -7 -3 -12 -12 -12 -9
0 -16 7 -16 16 0 17 22 14 28 -4z"/>
<path d="M3290 8990 l0 -50 35 0 c19 0 35 5 35 10 0 6 -11 10 -25 10 -22 0
-25 4 -25 40 0 22 -4 40 -10 40 -5 0 -10 -22 -10 -50z"/>
<path d="M2556 8843 c-10 -11 -7 -103 4 -103 6 0 10 9 10 19 0 14 8 21 27 23
28 3 43 32 26 48 -11 11 -60 20 -67 13z m49 -33 c0 -8 -8 -16 -17 -18 -13 -2
-18 3 -18 18 0 15 5 20 18 18 9 -2 17 -10 17 -18z"/>
<path d="M2673 8842 c-20 -3 -23 -9 -23 -53 0 -27 5 -49 10 -49 6 0 10 9 10
20 0 26 15 25 34 -2 9 -12 19 -19 22 -15 4 4 1 13 -5 21 -8 10 -9 16 -1 21 16
10 12 43 -7 53 -10 4 -28 6 -40 4z m32 -33 c0 -7 -8 -15 -17 -17 -18 -3 -25
18 -11 32 10 10 28 1 28 -15z"/>
<path d="M2800 8847 c0 -17 43 -107 52 -107 11 0 50 89 45 104 -2 6 -12 -6
-22 -26 -19 -38 -35 -49 -35 -24 0 15 -39 67 -40 53z"/>
<path d="M2930 8805 c-23 -54 -26 -75 -8 -57 15 15 51 15 66 0 6 -6 14 -9 17
-6 7 6 -32 95 -45 103 -6 4 -19 -15 -30 -40z m40 -16 c0 -5 -7 -9 -15 -9 -9 0
-12 6 -9 15 6 15 24 11 24 -6z"/>
<path d="M3052 8834 c-46 -32 -11 -103 44 -90 32 8 24 20 -14 21 -21 0 -28 6
-30 24 -4 29 14 42 48 35 24 -5 24 -5 6 10 -24 20 -26 20 -54 0z"/>
<path d="M3140 8840 c1 -8 7 -24 15 -34 8 -11 15 -30 15 -43 0 -13 5 -23 10
-23 6 0 10 9 10 21 0 11 9 34 21 50 16 23 17 29 5 29 -8 0 -18 -10 -22 -22 -7
-22 -7 -22 -30 7 -15 18 -24 24 -24 15z"/>
<path d="M2760 8789 c0 -31 4 -48 10 -44 6 3 10 26 10 51 0 24 -4 44 -10 44
-5 0 -10 -23 -10 -51z"/>
<path d="M2150 8774 c0 -9 -11 -64 -25 -122 -14 -58 -25 -115 -23 -126 4 -28
74 -65 136 -73 65 -7 142 12 180 45 l31 27 -31 130 c-17 72 -32 131 -34 133
-1 2 -13 -3 -26 -10 -12 -7 -24 -14 -26 -14 -1 -1 9 -50 23 -109 14 -59 25
-109 25 -111 0 -3 -16 -12 -35 -20 -44 -18 -106 -18 -150 0 l-34 14 15 64 c8
35 19 79 24 98 15 53 12 66 -15 78 -33 15 -35 15 -35 -4z"/>
<path d="M2567 8632 c-24 -26 -21 -59 7 -77 19 -13 29 -14 45 -5 28 14 27 24
-2 17 -31 -8 -49 6 -45 34 2 17 10 24 28 26 43 2 45 3 30 13 -23 15 -45 12
-63 -8z"/>
<path d="M2678 8639 c-27 -16 -23 -65 7 -85 23 -15 27 -15 50 0 30 20 33 56 7
79 -21 19 -39 21 -64 6z m59 -25 c7 -18 -6 -45 -24 -51 -6 -2 -18 3 -27 12
-12 12 -13 21 -6 36 13 23 48 25 57 3z"/>
<path d="M2790 8600 c0 -51 19 -72 21 -22 0 27 1 27 11 5 6 -13 14 -23 18 -23
4 0 12 10 18 23 10 22 11 22 11 -5 2 -50 21 -29 21 22 0 28 -3 50 -7 50 -5 0
-16 -15 -27 -33 l-18 -32 -16 33 c-22 45 -32 40 -32 -18z"/>
<path d="M2927 8644 c-11 -11 -8 -94 3 -94 6 0 10 12 10 28 l0 27 18 -23 18
-24 17 24 16 23 0 -27 c1 -50 21 -29 21 22 0 58 -12 64 -36 18 -15 -30 -18
-31 -28 -15 -23 39 -32 48 -39 41z"/>
<path d="M3060 8601 c0 -28 5 -51 10 -51 6 0 10 20 10 44 0 25 -4 48 -10 51
-6 4 -10 -13 -10 -44z"/>
<path d="M3110 8635 c-15 -17 -6 -33 26 -45 35 -14 31 -33 -6 -25 -34 8 -39 1
-10 -15 14 -8 26 -8 40 0 29 16 24 39 -10 51 -35 13 -40 31 -7 29 35 -3 43 0
27 10 -22 14 -46 12 -60 -5z"/>
<path d="M3210 8635 c-15 -17 -6 -33 26 -45 35 -14 31 -33 -6 -25 -34 8 -39 1
-10 -15 14 -8 26 -8 40 0 29 16 24 40 -10 53 -35 13 -40 29 -7 27 35 -3 43 0
27 10 -22 14 -46 12 -60 -5z"/>
<path d="M3307 8643 c-11 -10 -8 -93 3 -93 6 0 10 23 10 50 0 51 -1 55 -13 43z"/>
<path d="M3367 8632 c-24 -27 -21 -59 8 -78 23 -15 27 -15 50 0 25 16 29 26
25 56 -2 19 -29 40 -50 40 -9 0 -24 -8 -33 -18z m62 -16 c23 -28 -17 -68 -45
-45 -15 12 -19 41 -7 52 11 12 40 8 52 -7z"/>
<path d="M3480 8600 c0 -27 5 -50 10 -50 6 0 10 15 10 33 l0 32 26 -32 c14
-18 30 -33 35 -33 5 0 9 23 9 51 0 31 -4 48 -10 44 -5 -3 -10 -18 -10 -33 l0
-27 -26 33 c-14 17 -30 32 -35 32 -5 0 -9 -22 -9 -50z"/>
<path d="M2777 7648 c-80 -189 -149 -351 -153 -361 -6 -16 0 -18 61 -15 l68 3
94 220 c52 121 121 282 153 358 l58 137 -67 0 -68 0 -146 -342z"/>
<path d="M2243 7936 c-183 -60 -276 -253 -200 -418 53 -117 151 -181 285 -186
77 -4 88 -2 147 27 165 81 231 256 154 409 -34 68 -91 124 -157 154 -56 25
-173 33 -229 14z m175 -120 c62 -32 112 -112 112 -179 0 -44 -43 -128 -79
-155 -135 -99 -315 8 -299 178 10 98 88 170 186 170 29 0 65 -6 80 -14z"/>
<path d="M4547 7937 c-175 -57 -185 -277 -14 -328 17 -5 66 -19 107 -30 92
-25 120 -42 120 -74 0 -79 -144 -93 -254 -24 l-50 31 -38 -44 -37 -43 22 -18
c12 -9 47 -29 77 -44 46 -22 72 -28 155 -31 94 -4 103 -2 154 25 122 64 137
223 27 288 -22 13 -83 35 -134 48 -51 14 -104 32 -117 41 -33 22 -32 59 1 85
40 31 107 28 180 -9 32 -16 60 -30 61 -30 1 0 15 19 32 42 28 38 29 43 15 59
-47 52 -223 84 -307 56z"/>
<path d="M790 7640 l0 -302 168 4 c156 3 171 5 222 29 239 114 238 425 -2 535
-60 27 -72 29 -225 32 l-163 4 0 -302z m337 159 c29 -14 52 -35 69 -65 23 -38
26 -54 22 -108 -7 -115 -70 -166 -215 -174 l-83 -5 0 187 0 186 82 0 c62 0 92
-5 125 -21z"/>
<path d="M1460 7938 c0 -2 -1 -137 -3 -301 l-2 -297 66 0 66 0 0 93 1 92 104
6 c148 8 210 39 249 124 36 78 21 154 -44 223 -47 49 -105 62 -284 62 -84 0
-153 -1 -153 -2z m333 -138 c49 -39 43 -106 -13 -135 -22 -11 -52 -15 -111
-13 l-80 3 -2 83 -2 82 91 0 c76 0 96 -3 117 -20z"/>
<path d="M3170 7939 c0 -2 -1 -138 -3 -302 l-2 -298 165 3 c158 3 168 4 228
32 115 53 172 141 172 266 0 98 -33 168 -105 222 -80 60 -120 70 -297 76 -87
2 -158 2 -158 1z m330 -139 c55 -28 92 -80 98 -139 6 -66 -12 -113 -58 -155
-47 -42 -100 -58 -183 -54 l-62 3 -3 183 -2 182 85 0 c66 0 95 -5 125 -20z"/>
<path d="M3830 7641 l0 -301 65 0 65 0 0 95 0 95 88 0 c49 0 111 7 138 15 177
52 202 281 41 368 -38 20 -59 22 -219 25 l-178 4 0 -301z m323 167 c53 -28 63
-89 21 -129 -23 -21 -36 -24 -120 -27 l-94 -4 0 86 0 86 86 0 c47 0 95 -5 107
-12z"/>
<path d="M830 7181 c0 -4 11 -6 25 -3 30 5 44 -21 26 -49 -6 -11 -7 -19 -1
-19 16 0 23 49 10 65 -13 16 -60 21 -60 6z"/>
<path d="M940 7186 c0 -2 -7 -20 -15 -40 -8 -20 -13 -36 -10 -36 3 0 11 14 16
30 11 30 29 41 29 17 0 -7 7 -22 15 -33 14 -17 14 -15 0 20 -8 21 -15 40 -15
42 0 2 -4 4 -10 4 -5 0 -10 -2 -10 -4z"/>
<path d="M1007 7182 c6 -4 13 -23 16 -42 l4 -35 1 37 c2 25 7 38 20 41 9 3 1
5 -18 6 -19 0 -30 -3 -23 -7z"/>
<path d="M1084 7154 c-8 -20 -13 -39 -10 -42 3 -2 7 1 10 9 13 44 17 50 26 44
5 -3 10 -15 10 -25 0 -10 5 -22 10 -25 6 -3 10 -4 10 0 0 12 -29 75 -35 75 -3
0 -13 -16 -21 -36z"/>
<path d="M1202 7148 l1 -43 4 39 c4 34 7 38 28 33 14 -2 22 0 19 4 -3 5 -16 9
-30 9 -22 0 -24 -4 -22 -42z"/>
<path d="M1282 7148 l1 -43 4 38 c3 28 9 37 23 37 25 0 33 -15 17 -32 -8 -7
-12 -19 -9 -26 2 -8 9 -3 18 14 17 32 4 54 -32 54 -22 0 -24 -4 -22 -42z"/>
<path d="M1372 7178 c-21 -21 -14 -57 13 -70 22 -10 29 -9 43 6 16 17 16 18
-5 5 -18 -10 -24 -10 -37 0 -21 18 -20 48 2 60 9 6 12 11 7 11 -6 0 -16 -5
-23 -12z"/>
<path d="M1427 7166 c10 -13 19 -23 21 -21 7 6 -19 45 -29 45 -5 0 -2 -11 8
-24z"/>
<path d="M1467 7182 c6 -4 13 -23 16 -42 l4 -35 1 37 c2 25 7 38 20 41 9 3 1
5 -18 6 -19 0 -30 -3 -23 -7z"/>
<path d="M1535 7178 c-2 -7 -3 -26 -2 -43 2 -26 6 -30 32 -32 27 -2 28 -1 6 5
-36 11 -38 32 -4 33 27 1 27 1 4 8 -35 9 -37 29 -4 34 l28 4 -28 2 c-15 0 -29
-5 -32 -11z"/>
<path d="M1620 7175 c-27 -33 23 -96 52 -67 8 8 5 9 -9 6 -11 -3 -25 1 -32 10
-20 24 -9 50 24 57 29 6 29 7 4 8 -15 0 -32 -6 -39 -14z"/>
<path d="M1713 7183 c12 -3 17 -16 19 -41 l1 -37 4 35 c3 19 10 38 16 42 7 4
-4 7 -23 7 -19 -1 -27 -3 -17 -6z"/>
<path d="M1783 7150 c0 -25 2 -35 4 -22 2 12 2 32 0 45 -2 12 -4 2 -4 -23z"/>
<path d="M1822 7178 c-18 -18 -14 -56 7 -68 30 -16 38 -12 13 6 -28 19 -26 57
2 62 11 3 26 -4 33 -14 7 -10 13 -13 13 -8 0 15 -22 34 -40 34 -9 0 -21 -5
-28 -12z"/>
<path d="M1911 7148 c2 -42 2 -42 8 -10 l6 34 23 -31 c12 -17 26 -31 30 -31
11 0 13 68 2 75 -6 4 -10 -7 -10 -27 l0 -33 -22 32 c-13 18 -26 33 -30 33 -5
0 -7 -19 -7 -42z"/>
<path d="M2038 7165 c-10 -22 -9 -29 9 -46 26 -26 60 -18 69 17 13 52 -56 77
-78 29z m69 -1 c8 -20 -8 -48 -30 -52 -22 -5 -42 35 -26 54 16 19 48 18 56 -2z"/>
<path d="M2141 7148 c1 -24 3 -35 6 -26 2 9 14 19 26 21 l22 4 -22 2 c-33 2
-29 29 5 34 25 4 25 4 -5 6 -32 1 -33 0 -32 -41z"/>
<path d="M2221 7148 c1 -24 3 -35 6 -26 2 9 14 19 26 21 l22 4 -22 2 c-13 0
-23 7 -23 15 0 8 10 17 23 19 19 4 18 4 -5 6 -27 1 -28 -1 -27 -41z"/>
<path d="M2293 7150 c0 -25 2 -35 4 -22 2 12 2 32 0 45 -2 12 -4 2 -4 -23z"/>
<path d="M2332 7178 c-18 -18 -14 -56 7 -68 30 -15 38 -12 13 6 -26 18 -29 49
-4 63 9 6 12 11 7 11 -6 0 -16 -5 -23 -12z"/>
<path d="M2375 7180 c3 -5 8 -10 11 -10 2 0 4 5 4 10 0 6 -5 10 -11 10 -5 0
-7 -4 -4 -10z"/>
<path d="M2412 7148 c3 -40 5 -43 33 -45 27 -2 28 -1 6 5 -35 11 -37 30 -4 35
l28 4 -27 2 c-17 0 -28 7 -28 15 0 8 12 17 28 19 25 4 24 4 -6 6 -33 1 -33 1
-30 -41z"/>
<path d="M2492 7148 l1 -43 4 38 c3 29 9 37 24 37 21 0 25 -20 7 -38 -9 -9 -9
-15 1 -24 10 -11 11 -10 6 5 -4 10 -2 17 5 17 6 0 10 10 8 23 -2 16 -11 23
-30 25 -27 3 -28 2 -26 -40z"/>
<path d="M3192 7148 c2 -32 7 -43 21 -44 12 -1 13 -1 2 3 -10 3 -15 17 -15 39
0 31 3 35 23 32 18 -2 22 -9 22 -35 0 -39 1 -40 15 -12 15 26 -12 59 -47 59
-22 0 -24 -3 -21 -42z"/>
<path d="M3290 7150 c-11 -22 -16 -40 -11 -40 5 0 14 15 21 33 l12 32 15 -34
c8 -18 16 -31 19 -29 5 6 -24 78 -31 78 -2 0 -14 -18 -25 -40z"/>
<path d="M3373 7183 c12 -3 17 -16 19 -41 l1 -37 4 35 c3 19 10 38 16 42 7 4
-4 7 -23 7 -19 -1 -27 -3 -17 -6z"/>
<path d="M3460 7186 c0 -2 -7 -20 -15 -40 -8 -20 -13 -36 -10 -36 3 0 11 14
16 30 12 33 29 40 29 11 0 -10 7 -24 15 -31 12 -10 11 -5 -2 29 -9 23 -20 41
-25 41 -4 0 -8 -2 -8 -4z"/>
<path d="M3560 7148 c0 -27 3 -38 9 -30 4 7 6 25 3 39 -4 21 -2 24 19 21 16
-2 23 -9 22 -22 -1 -12 2 -15 9 -8 18 18 1 42 -32 42 -29 0 -30 -2 -30 -42z"/>
<path d="M3665 7183 c33 -8 42 -23 22 -37 -16 -13 -16 -14 0 -27 12 -10 15
-11 9 -1 -4 7 -2 19 4 27 19 22 4 45 -27 44 -21 -1 -23 -3 -8 -6z"/>
<path d="M3730 7169 c-9 -16 -8 -26 5 -45 8 -13 22 -24 30 -24 19 0 45 28 45
49 0 41 -61 57 -80 20z m67 -5 c8 -20 -8 -48 -30 -52 -22 -5 -42 35 -26 54 16
19 48 18 56 -2z"/>
<path d="M3840 7180 c-8 -5 -12 -12 -9 -15 4 -3 12 1 19 10 14 17 11 19 -10 5z"/>
<path d="M3917 7183 c-2 -5 -3 -24 -3 -43 1 -32 4 -35 31 -37 27 -2 28 -1 6 5
-36 11 -38 32 -4 33 27 1 27 1 4 8 -35 9 -37 29 -4 34 l28 4 -27 2 c-15 0 -29
-2 -31 -6z"/>
<path d="M3995 7180 c-9 -14 13 -40 32 -40 8 0 13 -6 10 -12 -2 -7 -15 -12
-28 -11 -20 2 -21 1 -7 -7 20 -12 48 -3 48 16 0 8 -11 20 -25 26 -31 14 -32
25 -2 31 22 4 22 4 0 6 -12 0 -25 -4 -28 -9z"/>
<path d="M4067 7183 c-14 -13 -6 -30 19 -41 29 -14 22 -36 -9 -28 -15 4 -17 2
-8 -7 8 -8 16 -9 28 -1 27 17 26 33 -1 44 -32 12 -34 27 -3 33 20 4 20 4 1 6
-11 0 -24 -2 -27 -6z"/>
<path d="M4143 7150 c0 -25 2 -35 4 -22 2 12 2 32 0 45 -2 12 -4 2 -4 -23z"/>
<path d="M4170 7184 c0 -12 53 -74 64 -74 3 0 5 19 4 43 -1 40 -1 40 -5 7 l-5
-35 -29 35 c-15 19 -29 30 -29 24z"/>
<path d="M4272 7178 c-13 -13 -16 -54 -4 -61 4 -3 7 9 7 26 0 28 3 32 28 32
15 -1 27 3 27 7 0 12 -45 9 -58 -4z"/>
<path d="M4385 7180 c-8 -13 13 -40 31 -40 8 0 14 -7 14 -16 0 -12 -6 -15 -27
-10 -23 5 -25 4 -10 -5 10 -6 25 -8 33 -5 23 9 16 34 -13 50 l-28 15 25 10
c24 9 24 10 3 10 -12 1 -25 -4 -28 -9z"/>
<path d="M4460 7184 c0 -5 7 -20 16 -32 l16 -23 14 26 c18 35 18 44 -1 19 -15
-19 -15 -19 -30 0 -8 11 -15 15 -15 10z"/>
<path d="M4541 7176 c-12 -15 -2 -27 32 -39 24 -9 11 -30 -14 -24 -11 3 -17 1
-13 -4 8 -14 30 -11 43 5 10 12 7 18 -13 31 -32 21 -33 32 -3 38 21 4 21 4 1
6 -12 0 -27 -5 -33 -13z"/>
<path d="M4619 7181 c12 -8 51 -4 51 5 0 2 -15 4 -32 4 -23 0 -29 -3 -19 -9z"/>
<path d="M4690 7145 c0 -43 1 -45 28 -44 23 2 24 2 5 6 -13 2 -23 11 -23 18 0
7 10 16 23 18 l22 4 -22 2 c-33 2 -29 29 5 34 25 4 25 4 -5 6 -33 1 -33 0 -33
-44z"/>
<path d="M4771 7150 c1 -35 3 -39 8 -20 7 24 7 24 19 5 l12 -20 12 20 c12 19
12 19 19 -5 5 -19 6 -14 6 19 1 41 -1 43 -13 26 -8 -10 -14 -22 -14 -27 0 -17
-16 -7 -32 20 l-17 27 0 -45z"/>
<path d="M1245 7150 c-3 -5 -1 -10 4 -10 6 0 11 5 11 10 0 6 -2 10 -4 10 -3 0
-8 -4 -11 -10z"/>
<path d="M4322 7130 c0 -14 2 -19 5 -12 2 6 2 18 0 25 -3 6 -5 1 -5 -13z"/>
<path d="M1876 7123 c-6 -14 -5 -15 5 -6 7 7 10 15 7 18 -3 3 -9 -2 -12 -12z"/>
<path d="M3830 7131 c0 -6 4 -13 10 -16 6 -3 7 1 4 9 -7 18 -14 21 -14 7z"/>
<path d="M4171 7124 c0 -11 3 -14 6 -6 3 7 2 16 -1 19 -3 4 -6 -2 -5 -13z"/>
<path d="M830 7110 c0 -6 7 -10 15 -10 8 0 15 2 15 4 0 2 -7 6 -15 10 -8 3
-15 1 -15 -4z"/>
<path d="M3870 7110 c-9 -6 -10 -10 -3 -10 6 0 15 5 18 10 8 12 4 12 -15 0z"/>
<path d="M1660 6000 c-10 -18 -9 -25 2 -37 22 -22 39 4 22 36 l-12 23 -12 -22z"/>
<path d="M1719 5999 c-9 -17 -8 -25 5 -37 14 -14 16 -14 22 3 5 11 3 20 -4 23
-6 2 -8 10 -5 18 8 22 -5 17 -18 -7z"/>
<path d="M1780 5945 l0 -75 45 0 c35 0 52 6 70 25 55 54 15 125 -71 125 l-44
0 0 -75z m98 33 c28 -28 1 -78 -44 -78 -22 0 -24 4 -24 45 0 43 1 45 28 45 15
0 33 -5 40 -12z"/>
<path d="M1966 5968 c-37 -83 -40 -98 -21 -98 8 0 18 7 21 15 4 9 19 15 39 15
20 0 35 -6 39 -15 5 -15 36 -22 36 -8 0 4 -12 37 -27 75 -35 86 -55 89 -87 16z
m64 -40 c0 -4 -9 -8 -20 -8 -21 0 -24 8 -13 36 6 16 7 16 20 -2 7 -10 13 -21
13 -26z"/>
<path d="M2080 6005 c0 -9 9 -15 25 -15 24 0 25 -3 25 -60 0 -47 3 -60 15 -60
12 0 15 13 15 60 0 57 1 60 25 60 16 0 25 6 25 15 0 12 -14 15 -65 15 -51 0
-65 -3 -65 -15z"/>
<path d="M2242 5997 c-12 -13 -22 -36 -22 -51 0 -37 41 -76 80 -76 38 0 80 39
80 73 0 13 -9 36 -21 51 -27 35 -86 36 -117 3z m88 -17 c23 -23 25 -40 8 -62
-22 -26 -47 -29 -68 -8 -26 26 -25 55 2 74 29 20 34 20 58 -4z"/>
<path d="M2412 6008 c-28 -28 5 -78 50 -78 23 0 34 -20 17 -31 -14 -9 -28 -8
-61 6 -13 5 -18 3 -18 -8 0 -30 78 -38 105 -11 25 25 14 47 -32 69 -24 11 -43
23 -43 28 0 14 32 20 51 9 19 -12 35 0 24 18 -9 14 -78 13 -93 -2z"/>
<path d="M2600 5945 c0 -60 3 -75 15 -75 11 0 15 12 15 45 0 25 3 45 8 45 4 0
21 -21 37 -45 17 -25 38 -45 48 -45 15 0 17 10 17 75 0 59 -3 75 -14 75 -11 0
-16 -14 -18 -47 l-3 -48 -34 48 c-20 26 -42 47 -53 47 -16 0 -18 -9 -18 -75z"/>
<path d="M2790 6000 c-46 -46 -9 -130 56 -130 44 0 66 20 62 55 -3 26 -7 30
-32 30 -16 0 -31 -6 -33 -12 -3 -8 4 -13 16 -13 26 0 27 -16 3 -29 -26 -14
-62 13 -62 44 0 33 41 60 69 46 13 -7 22 -8 26 -1 21 34 -72 43 -105 10z"/>
<path d="M3000 5945 c0 -60 3 -75 15 -75 9 0 15 9 15 25 0 21 5 25 29 25 35 0
61 23 61 54 0 34 -19 46 -72 46 l-48 0 0 -75z m85 25 c0 -9 -11 -16 -27 -18
-23 -3 -28 1 -28 18 0 17 5 21 28 18 16 -2 27 -9 27 -18z"/>
<path d="M3150 5945 c0 -60 3 -75 15 -75 12 0 15 15 15 75 0 60 -3 75 -15 75
-12 0 -15 -15 -15 -75z"/>
<path d="M3210 5945 l0 -75 55 0 c41 0 55 4 55 14 0 10 -13 16 -37 18 l-38 3
0 58 c0 48 -2 57 -17 57 -16 0 -18 -10 -18 -75z"/>
<path d="M3340 5944 c0 -66 2 -75 17 -72 14 3 18 16 18 76 1 63 -1 72 -17 72
-16 0 -18 -9 -18 -76z"/>
<path d="M3410 5945 c0 -60 3 -75 15 -75 9 0 15 9 15 25 0 20 5 25 26 25 41 0
64 18 64 48 0 40 -17 52 -72 52 l-48 0 0 -75z m88 28 c-2 -11 -14 -19 -31 -21
-22 -3 -27 1 -27 17 0 17 6 21 31 21 24 0 30 -4 27 -17z"/>
<path d="M3560 5945 c0 -60 3 -75 15 -75 12 0 15 15 15 75 0 60 -3 75 -15 75
-12 0 -15 -15 -15 -75z"/>
<path d="M3620 5945 c0 -60 3 -75 15 -75 11 0 15 12 15 45 0 25 3 45 8 45 4
-1 22 -21 40 -45 49 -67 62 -61 62 30 0 59 -3 75 -14 75 -11 0 -16 -14 -18
-47 l-3 -48 -33 48 c-20 29 -40 47 -52 47 -18 0 -20 -7 -20 -75z"/>
<path d="M3810 6000 c-12 -12 -20 -33 -20 -53 0 -70 85 -103 135 -52 30 30 32
64 4 99 -26 33 -88 37 -119 6z m90 -20 c30 -30 25 -57 -16 -78 -49 -26 -88 50
-42 82 29 20 34 20 58 -4z"/>
<path d="M3961 5896 c-9 -10 -9 -16 -1 -21 6 -4 9 -13 6 -21 -3 -8 -1 -14 4
-14 5 0 13 12 16 26 8 31 -8 51 -25 30z"/>
<path d="M1777 5753 c-4 -3 -7 -37 -7 -75 0 -52 3 -68 14 -68 8 0 16 10 18 22
2 18 12 24 42 29 57 9 72 43 36 79 -20 20 -88 28 -103 13z m82 -37 c9 -10 8
-16 -3 -25 -22 -18 -51 -9 -54 17 -3 18 1 22 21 22 14 0 30 -6 36 -14z"/>
<path d="M1927 5753 c-4 -3 -7 -37 -7 -75 0 -54 3 -68 15 -68 8 0 15 9 15 19
0 31 17 33 38 6 11 -14 27 -25 36 -25 15 0 15 2 1 23 -13 21 -13 24 5 40 25
21 25 42 0 67 -20 20 -88 28 -103 13z m78 -48 c0 -31 -49 -28 -53 3 -3 20 0
23 25 20 20 -2 28 -8 28 -23z"/>
<path d="M2088 5730 c-24 -25 -29 -36 -23 -58 15 -62 89 -88 135 -47 31 28 27
88 -6 114 -37 29 -70 26 -106 -9z m95 -21 c14 -23 1 -67 -23 -74 -46 -15 -82
49 -48 83 17 17 58 11 71 -9z"/>
<path d="M2237 5754 c-10 -11 3 -24 24 -24 17 0 19 -7 19 -60 0 -47 3 -60 15
-60 12 0 15 13 15 60 0 57 1 60 25 60 16 0 25 6 25 15 0 12 -13 15 -58 15 -32
0 -62 -3 -65 -6z"/>
<path d="M2390 5685 l0 -75 55 0 c30 0 55 5 55 10 0 6 -18 10 -40 10 -33 0
-40 3 -40 20 0 17 7 20 40 20 22 0 40 5 40 10 0 6 -18 10 -40 10 -33 0 -40 3
-40 20 0 17 7 20 40 20 29 0 40 4 40 15 0 12 -13 15 -55 15 l-55 0 0 -75z"/>
<path d="M2537 5754 c-4 -4 -7 -38 -7 -76 0 -61 2 -68 20 -68 15 0 20 7 20 25
0 14 5 25 11 25 6 0 20 -11 31 -25 11 -14 26 -25 34 -25 20 0 18 6 -12 46
l-27 35 27 27 c29 32 32 42 12 42 -8 0 -28 -16 -45 -35 -17 -20 -31 -32 -32
-28 -1 4 -2 19 -2 32 -2 24 -17 37 -30 25z"/>
<path d="M2690 5745 c0 -8 9 -15 20 -15 18 0 20 -7 20 -60 0 -52 2 -60 19 -60
17 0 19 7 18 58 -2 52 0 57 21 60 12 2 22 10 22 18 0 11 -15 14 -60 14 -47 0
-60 -3 -60 -15z"/>
<path d="M2861 5738 c-6 -13 -19 -45 -30 -72 -25 -59 -25 -56 -1 -56 11 0 20
5 20 10 0 14 56 13 80 -2 32 -20 33 -3 2 68 -31 74 -55 91 -71 52z m39 -82
c-5 -5 -16 -6 -24 -3 -13 5 -14 11 -4 32 l12 26 12 -23 c7 -13 9 -27 4 -32z"/>
<path d="M2998 5754 c-5 -4 -8 -38 -8 -76 l0 -68 50 0 c59 0 90 24 90 69 0 44
-29 72 -80 78 -25 3 -48 1 -52 -3z m86 -40 c22 -22 20 -50 -6 -68 -43 -30 -58
-21 -58 34 0 46 2 50 24 50 14 0 32 -7 40 -16z"/>
<path d="M3175 5735 c-64 -63 12 -163 93 -121 16 8 32 23 36 31 21 55 -18 115
-74 115 -19 0 -40 -9 -55 -25z m89 -21 c21 -20 20 -43 -1 -66 -20 -22 -41 -23
-65 -1 -22 20 -23 41 -1 65 20 22 46 23 67 2z"/>
<path d="M3400 5686 c0 -61 3 -76 15 -76 8 0 15 9 15 19 0 33 22 36 42 8 11
-15 29 -27 40 -27 18 0 16 4 -12 41 l-33 40 27 28 c29 31 32 41 12 41 -8 0
-28 -17 -43 -37 l-28 -37 -5 34 c-3 18 -11 35 -17 38 -10 3 -13 -16 -13 -72z"/>
<path d="M3566 5739 c-32 -25 -35 -75 -7 -110 27 -34 86 -32 117 5 32 36 30
61 -5 97 -35 34 -68 37 -105 8z m90 -34 c15 -23 15 -27 0 -50 -28 -42 -86 -23
-86 29 0 49 58 63 86 21z"/>
<path d="M3725 5750 c-9 -14 4 -90 16 -90 5 0 9 18 9 40 0 22 0 43 1 47 1 12
-19 15 -26 3z"/>
<path d="M3791 5746 c-9 -10 -9 -16 -1 -21 6 -4 9 -14 6 -22 -4 -9 -1 -13 6
-11 16 6 23 47 10 60 -5 5 -14 3 -21 -6z"/>
<path d="M3845 5741 c-3 -5 0 -13 6 -16 5 -4 8 -14 5 -22 -4 -9 -1 -13 6 -11
19 7 23 58 4 58 -8 0 -17 -4 -21 -9z"/>
<path d="M3724 5629 c-10 -17 13 -36 27 -22 12 12 4 33 -11 33 -5 0 -12 -5
-16 -11z"/>
<path d="M1900 4740 l0 -160 160 0 160 0 0 160 0 160 -160 0 -160 0 0 -160z
m278 -2 l-3 -113 -112 -3 -113 -3 0 116 0 115 115 0 116 0 -3 -112z"/>
<path d="M1997 4803 c-4 -3 -7 -35 -7 -70 l0 -63 70 0 70 0 0 70 0 70 -63 0
c-35 0 -67 -3 -70 -7z"/>
<path d="M2360 4875 c0 -20 -5 -25 -25 -25 -18 0 -25 -5 -25 -20 0 -13 -7 -20
-20 -20 -19 0 -20 -7 -20 -140 0 -132 1 -140 20 -140 17 0 20 8 22 92 l3 93
43 -3 c39 -3 42 -2 42 22 0 21 5 26 25 26 23 0 25 -4 25 -45 l0 -45 -45 0 -45
0 0 -90 c0 -83 1 -90 20 -90 17 0 20 -7 20 -44 0 -35 -4 -45 -20 -49 -12 -3
-20 -14 -20 -26 0 -16 -6 -21 -25 -21 -23 0 -25 4 -25 45 0 38 -3 45 -19 45
-13 0 -21 8 -23 23 -2 14 -11 23 -25 25 -15 2 -23 10 -23 23 0 18 -8 19 -115
19 l-115 0 0 -64 0 -65 -42 -3 -43 -3 -3 -92 -3 -93 26 0 c18 0 25 -5 25 -20
0 -13 7 -20 20 -20 19 0 20 -7 20 -140 l0 -140 -45 0 c-38 0 -45 -3 -45 -20 0
-17 8 -19 68 -22 l67 -3 3 -42 c2 -29 8 -43 18 -43 23 0 29 4 29 20 0 11 13
16 48 18 41 3 47 1 47 -17 0 -13 -8 -21 -22 -23 -20 -3 -23 -10 -26 -50 -3
-44 -5 -48 -28 -48 -33 0 -29 -34 4 -38 34 -5 31 -52 -3 -52 -18 0 -25 -5 -25
-20 0 -13 -7 -20 -20 -20 -13 0 -20 7 -20 19 0 13 -8 21 -22 23 -19 2 -24 10
-26 45 -3 37 0 42 20 45 20 3 23 9 23 48 0 38 -3 45 -20 45 -13 0 -21 -8 -23
-22 -3 -20 -9 -23 -48 -23 l-44 0 0 -44 c0 -39 3 -45 23 -48 14 -2 22 -10 22
-23 0 -13 -8 -21 -22 -23 -22 -3 -23 -8 -23 -93 0 -88 0 -89 25 -89 24 0 25 2
25 70 0 63 2 70 19 70 17 0 20 -8 23 -47 3 -40 6 -48 23 -48 13 0 21 8 23 22
2 14 11 23 25 25 14 2 22 10 22 23 0 13 8 21 23 23 18 3 22 -1 22 -22 0 -24 3
-26 45 -26 38 0 45 -3 45 -20 0 -13 -7 -20 -20 -20 -15 0 -20 -7 -20 -25 0
-18 5 -25 20 -25 15 0 20 7 20 25 0 23 4 25 45 25 41 0 45 -2 45 -25 0 -18 -5
-25 -20 -25 -15 0 -20 -7 -20 -25 0 -18 5 -25 20 -25 13 0 20 -7 20 -20 0 -13
-7 -20 -20 -20 -19 0 -20 -7 -20 -90 0 -83 1 -90 20 -90 15 0 20 -7 20 -25 0
-18 -5 -25 -20 -25 -15 0 -20 -7 -20 -25 0 -18 5 -25 20 -25 15 0 20 7 20 25
0 23 4 25 44 25 39 0 45 3 48 23 2 14 11 23 26 25 18 3 22 -1 22 -22 0 -21 5
-26 25 -26 23 0 25 4 25 45 l0 45 45 0 45 0 0 -45 c0 -38 3 -45 19 -45 13 0
21 -8 23 -22 2 -15 10 -23 23 -23 13 0 21 8 23 23 2 14 10 22 23 22 16 0 19 7
19 45 l0 45 -65 0 c-63 0 -65 1 -65 25 0 23 4 25 45 25 38 0 45 3 45 20 0 19
-7 20 -115 20 -108 0 -115 -1 -115 -20 0 -15 -7 -20 -25 -20 -18 0 -25 5 -25
20 0 13 -7 20 -20 20 -17 0 -20 7 -20 45 0 37 3 45 19 45 10 0 21 9 24 19 6
23 0 31 -24 31 -11 0 -19 9 -21 23 -2 14 -11 23 -25 25 -15 2 -23 10 -23 23 0
12 -7 19 -20 19 -15 0 -20 7 -20 25 0 18 5 25 20 25 13 0 20 7 20 20 0 15 7
20 25 20 18 0 25 -5 25 -20 0 -17 7 -20 45 -20 41 0 45 -2 45 -25 0 -20 -5
-25 -26 -25 -21 0 -25 -4 -22 -22 2 -15 10 -23 23 -23 17 0 20 -8 23 -47 3
-46 2 -48 -22 -48 -19 0 -26 -5 -26 -20 0 -15 7 -20 25 -20 18 0 25 5 25 20 0
15 7 20 25 20 18 0 25 -5 25 -20 0 -17 7 -20 45 -20 38 0 45 3 45 20 0 13 7
20 20 20 13 0 20 -7 20 -20 0 -15 7 -20 25 -20 18 0 25 5 25 20 0 15 -7 20
-25 20 -20 0 -25 5 -25 25 0 18 -5 25 -20 25 -15 0 -20 -7 -20 -26 0 -21 -4
-25 -22 -22 -20 3 -23 10 -26 52 l-3 48 45 -4 c42 -3 46 -1 46 19 0 16 -6 23
-20 23 -15 0 -20 7 -20 25 0 18 5 25 20 25 18 0 20 7 20 65 l0 65 45 0 45 0 0
70 c0 68 1 70 25 70 23 0 25 4 25 45 l0 45 45 0 c38 0 45 -3 45 -20 0 -13 -7
-20 -20 -20 -15 0 -20 -7 -20 -25 0 -23 4 -25 46 -25 41 0 45 -2 42 -21 -3
-20 -10 -22 -68 -23 -59 -1 -65 -3 -68 -23 -2 -16 3 -22 20 -25 31 -4 32 -42
1 -46 -20 -3 -23 -9 -23 -48 l0 -44 45 0 c41 0 45 2 45 25 0 20 5 25 25 25 20
0 25 -5 25 -25 0 -18 5 -25 20 -25 13 0 20 -7 20 -20 0 -13 -7 -20 -20 -20
-15 0 -20 -7 -20 -25 0 -20 -5 -25 -25 -25 -20 0 -25 5 -25 25 0 18 -5 25 -20
25 -15 0 -20 -7 -20 -25 0 -18 5 -25 19 -25 13 0 21 -8 23 -22 2 -15 10 -23
23 -23 13 0 21 -8 23 -22 2 -15 10 -23 23 -23 14 0 19 -7 19 -25 0 -18 -5 -25
-20 -25 -13 0 -20 -7 -20 -20 0 -13 7 -20 20 -20 15 0 20 -7 20 -25 0 -23 -4
-25 -45 -25 -41 0 -45 2 -45 25 0 23 -4 25 -45 25 -38 0 -45 3 -45 19 0 13 8
21 23 23 30 4 30 42 0 46 -14 2 -23 11 -25 25 -2 18 -9 22 -43 22 -34 0 -40
-3 -43 -22 -3 -21 1 -23 42 -23 42 0 46 -2 46 -25 0 -20 -5 -25 -25 -25 -18 0
-25 -5 -25 -20 0 -15 7 -20 25 -20 20 0 25 -5 25 -25 0 -20 -5 -25 -25 -25
-18 0 -25 -5 -25 -20 0 -15 7 -20 25 -20 20 0 25 -5 25 -25 0 -20 5 -25 25
-25 18 0 25 -5 25 -20 0 -13 7 -20 20 -20 15 0 20 -7 20 -25 0 -20 5 -25 25
-25 20 0 25 -5 25 -25 0 -18 5 -25 20 -25 17 0 20 7 20 50 0 43 -3 50 -20 50
-13 0 -20 7 -20 20 0 15 -7 20 -26 20 -21 0 -25 4 -22 23 2 18 10 23 46 25 39
3 42 1 42 -22 0 -21 5 -26 25 -26 18 0 25 -5 25 -20 0 -17 7 -20 45 -20 41 0
45 -2 45 -24 0 -18 -6 -25 -22 -28 -15 -2 -23 -10 -23 -23 0 -17 7 -20 45 -20
39 0 45 3 48 23 2 14 10 22 22 22 12 0 20 -8 22 -22 2 -19 10 -24 46 -26 39
-3 42 -1 42 22 0 24 -3 26 -45 26 l-45 0 0 45 c0 38 -3 45 -20 45 -13 0 -20
-7 -20 -20 0 -15 -7 -20 -25 -20 -18 0 -25 5 -25 20 0 17 -7 20 -45 20 -41 0
-45 2 -45 25 0 25 1 25 90 25 83 0 90 1 90 20 0 15 7 20 25 20 18 0 25 -5 25
-20 0 -17 7 -20 45 -20 39 0 45 3 45 21 0 15 5 20 23 17 12 -2 22 -10 22 -18
0 -8 10 -16 23 -18 19 -3 22 -9 22 -48 0 -36 -3 -44 -19 -44 -10 0 -21 9 -24
20 -4 17 -14 20 -71 20 -59 0 -66 -2 -66 -20 0 -18 7 -20 65 -20 61 0 65 -2
71 -25 9 -35 44 -34 44 0 0 26 1 26 68 23 61 -3 67 -5 70 -25 3 -21 -1 -23
-42 -23 -42 0 -46 -2 -46 -25 0 -24 2 -25 65 -25 63 0 65 1 65 25 0 20 5 25
25 25 20 0 25 -5 25 -26 0 -20 4 -25 22 -22 31 4 33 48 2 48 -16 0 -24 7 -26
23 -2 14 -11 23 -25 25 -15 2 -23 10 -23 23 0 12 -7 19 -20 19 -15 0 -20 7
-20 25 0 18 5 25 20 25 13 0 20 7 20 20 0 15 7 20 25 20 18 0 25 -5 25 -19 0
-13 8 -21 23 -23 14 -2 22 -10 22 -23 0 -17 8 -20 48 -23 46 -3 48 -2 45 20
-2 15 -11 24 -25 26 -15 2 -23 10 -23 22 0 12 8 20 23 22 14 2 22 10 22 23 0
17 -8 20 -47 23 -39 3 -48 7 -48 22 0 15 9 19 48 22 40 3 47 6 50 26 3 18 -1
22 -23 22 -22 0 -26 4 -23 23 2 14 10 22 23 22 13 0 21 8 23 23 3 22 1 23 -45
20 -35 -2 -48 -7 -48 -18 0 -16 -6 -20 -30 -20 -11 0 -15 12 -15 45 0 41 -2
45 -25 45 -18 0 -25 5 -25 20 0 17 7 20 45 20 38 0 45 -3 45 -20 0 -17 7 -20
50 -20 43 0 50 3 50 20 0 17 -7 20 -50 20 -47 0 -50 2 -50 25 0 23 3 25 50 25
43 0 50 3 50 19 0 13 -8 21 -22 23 -15 2 -24 11 -26 26 -3 18 1 22 23 22 22 0
26 4 23 23 -4 30 -42 30 -46 0 -2 -14 -11 -23 -25 -25 -18 -2 -23 -11 -25 -45
-3 -35 -7 -43 -23 -43 -12 0 -19 7 -19 20 0 15 -7 20 -25 20 -20 0 -25 5 -25
25 0 20 5 25 24 25 18 0 25 6 28 23 2 12 10 22 18 22 16 0 20 6 20 30 0 11
-12 15 -45 15 l-45 0 0 45 c0 41 2 45 25 45 20 0 25 5 25 26 0 21 4 25 23 22
14 -2 22 -10 22 -23 0 -17 7 -20 45 -20 l45 0 3 43 3 42 -70 0 -70 0 -3 48
c-3 40 -6 47 -25 50 -15 2 -23 10 -23 23 0 12 -7 19 -19 19 -13 0 -21 8 -23
23 -2 14 -11 23 -25 25 -15 2 -23 10 -23 23 0 16 7 19 45 19 38 0 45 -3 45
-20 0 -15 7 -20 25 -20 20 0 25 -5 25 -26 0 -21 4 -25 23 -22 14 2 22 10 22
23 0 13 -8 21 -22 23 -29 4 -32 42 -4 42 11 0 22 4 25 9 10 16 -5 41 -25 41
-13 0 -19 7 -19 21 0 15 5 20 23 17 15 -2 21 -9 19 -20 -2 -15 5 -18 48 -18
43 0 50 3 50 19 0 13 -8 21 -22 23 -15 2 -24 11 -26 26 -3 18 1 22 23 22 22 0
26 4 23 23 -3 19 -9 22 -48 22 -38 0 -45 -3 -45 -20 0 -30 -42 -33 -47 -3 -2
15 -10 23 -23 23 -17 0 -20 -8 -23 -47 -3 -40 -6 -48 -23 -48 -12 0 -19 -7
-19 -20 0 -15 -7 -20 -25 -20 -18 0 -25 5 -25 20 0 17 -7 20 -45 20 l-45 0 0
70 0 70 89 0 c85 0 90 1 93 23 2 14 11 23 26 25 18 3 22 -1 22 -22 0 -25 1
-26 71 -26 67 0 70 1 67 23 -3 19 -10 22 -51 25 -38 3 -47 6 -45 20 3 15 -10
17 -109 20 -108 3 -113 2 -113 -18 0 -18 -6 -20 -70 -20 -67 0 -70 -1 -70 -24
0 -18 6 -25 22 -28 13 -2 24 -11 26 -20 3 -15 -4 -18 -47 -18 l-51 0 0 65 0
65 70 0 70 0 0 45 c0 41 -2 45 -24 45 -17 0 -23 -5 -22 -17 0 -12 -7 -19 -21
-21 -18 -3 -23 2 -23 17 0 16 -6 21 -26 21 -24 0 -25 2 -22 48 3 39 6 47 23
47 13 0 21 -8 23 -23 3 -17 9 -22 25 -20 18 2 22 10 22 43 0 34 4 40 23 43 20
3 22 9 22 73 l0 70 -67 -3 c-62 -3 -68 -5 -71 -25 -5 -33 -42 -31 -42 2 0 20
-5 25 -25 25 -20 0 -25 -5 -25 -25 0 -33 -37 -35 -42 -2 -2 14 -11 23 -25 25
-19 3 -23 -1 -23 -22 0 -24 -3 -26 -45 -26 -42 0 -45 2 -45 26 0 21 -4 25 -22
22 -15 -2 -23 -10 -23 -23 0 -13 8 -21 23 -23 14 -2 22 -10 22 -23 0 -16 7
-19 45 -19 38 0 45 3 45 20 0 15 7 20 25 20 23 0 25 -4 25 -45 0 -38 3 -45 19
-45 13 0 21 8 23 23 2 18 10 23 46 25 34 3 42 7 42 23 0 16 7 19 50 19 43 0
50 -3 50 -20 0 -15 -7 -20 -25 -20 -20 0 -25 -5 -25 -25 0 -23 -4 -25 -44 -25
-39 0 -45 -3 -48 -22 -2 -15 -10 -23 -23 -23 -13 0 -21 -8 -23 -22 -2 -15 -10
-23 -22 -23 -12 0 -20 8 -22 23 -2 16 -9 21 -25 19 -19 -3 -23 2 -23 22 0 24
-3 26 -44 26 -39 0 -45 -3 -48 -22 -2 -15 -11 -24 -25 -26 -21 -3 -23 0 -23
47 0 44 -3 51 -19 51 -16 0 -20 8 -23 43 -2 34 -7 42 -23 42 -16 0 -21 -8 -23
-42 l-3 -43 -45 0 c-37 0 -44 3 -44 19 0 13 8 21 23 23 14 2 22 10 22 23 0 13
-8 21 -22 23 -19 3 -23 -1 -23 -22 0 -21 -5 -26 -25 -26 -18 0 -25 -5 -25 -20
0 -15 7 -20 25 -20 20 0 25 -5 25 -25 0 -20 -5 -25 -26 -25 -21 0 -25 -4 -22
-22 2 -15 11 -24 26 -26 18 -3 22 1 22 22 0 25 1 26 71 26 67 0 70 -1 67 -22
-2 -15 -10 -23 -23 -23 -13 0 -21 -8 -23 -22 -4 -28 -42 -32 -42 -5 0 25 -7
31 -31 25 -29 -8 -25 -43 6 -43 24 0 25 -2 25 -70 l0 -70 45 0 45 0 0 -45 c0
-41 -2 -45 -25 -45 -18 0 -25 -5 -25 -19 0 -16 -8 -20 -42 -23 l-43 -3 -3 -47
c-3 -43 -5 -48 -28 -48 -19 0 -24 5 -24 25 0 18 -5 25 -20 25 -15 0 -20 7 -20
26 0 21 -4 25 -22 22 -15 -2 -24 -11 -26 -25 -2 -15 -10 -23 -22 -23 -12 0
-20 8 -22 23 -2 14 -11 23 -25 25 -15 2 -23 10 -23 23 0 12 -7 19 -20 19 -15
0 -20 7 -20 25 0 23 4 25 45 25 41 0 45 -2 45 -25 0 -23 4 -25 45 -25 37 0 45
-3 45 -19 0 -10 9 -21 20 -24 19 -5 20 0 20 64 0 67 1 69 25 69 23 0 25 4 25
45 0 41 -2 45 -25 45 -23 0 -25 4 -25 44 0 35 -4 45 -20 49 -12 3 -20 14 -20
26 0 16 -6 21 -25 21 -23 0 -25 4 -25 45 0 41 2 45 25 45 20 0 25 5 25 25 0
25 -1 25 -90 25 l-90 0 0 -45 0 -45 -50 0 -50 0 0 45 c0 38 -3 45 -20 45 -15
0 -20 -7 -20 -25z m230 -45 c0 -15 -7 -20 -26 -20 -24 0 -25 -2 -22 -47 3 -40
6 -48 23 -48 13 0 21 8 23 23 2 14 10 22 23 22 16 0 19 -7 19 -45 0 -41 2 -45
25 -45 20 0 25 -5 25 -25 0 -18 5 -25 20 -25 17 0 20 -7 20 -45 0 -38 -3 -45
-20 -45 -13 0 -20 -7 -20 -20 0 -17 -7 -20 -45 -20 -38 0 -45 3 -45 20 0 15
-7 20 -25 20 -20 0 -25 5 -25 25 0 18 -5 25 -20 25 -17 0 -20 -7 -20 -45 0
-41 -2 -45 -25 -45 -23 0 -25 4 -25 45 0 41 -2 45 -25 45 -18 0 -25 5 -25 20
0 15 7 20 25 20 20 0 25 5 25 25 0 20 5 25 25 25 24 0 25 2 25 70 0 63 2 70
20 70 13 0 20 7 20 20 0 15 7 20 25 20 18 0 25 -5 25 -20z m-230 -45 c0 -20
-5 -25 -25 -25 -20 0 -25 5 -25 25 0 20 5 25 25 25 20 0 25 -5 25 -25z m728
-93 c3 -20 -1 -22 -42 -22 l-46 0 0 -46 c0 -41 2 -45 23 -42 15 2 21 9 19 21
-2 12 4 17 23 17 23 0 25 -3 25 -45 l0 -45 -45 0 c-38 0 -45 -3 -45 -20 0 -19
7 -20 90 -20 83 0 90 1 90 20 0 13 -7 20 -20 20 -17 0 -20 7 -20 45 0 38 3 45
20 45 13 0 20 -7 20 -20 0 -15 7 -20 25 -20 18 0 25 5 25 20 0 13 7 20 20 20
17 0 20 -7 20 -45 0 -38 -3 -45 -20 -45 -13 0 -20 -7 -20 -20 0 -15 -7 -20
-25 -20 -20 0 -25 -5 -25 -25 0 -23 -4 -25 -45 -25 l-45 0 0 -46 c0 -41 -2
-45 -22 -42 -19 2 -23 9 -24 43 0 33 -4 41 -21 43 -15 2 -22 -3 -25 -18 -2
-11 -6 -21 -10 -20 -5 0 -24 0 -43 0 -28 0 -35 4 -35 20 0 17 7 20 45 20 41 0
45 2 45 25 0 20 -5 25 -25 25 -18 0 -25 5 -25 20 0 15 7 20 25 20 20 0 25 5
25 25 0 20 -5 25 -25 25 -18 0 -25 5 -25 20 0 13 -7 20 -20 20 -13 0 -20 -7
-20 -20 0 -15 -7 -20 -25 -20 -18 0 -25 5 -25 20 0 15 7 20 25 20 23 0 25 4
25 45 0 38 3 45 20 45 13 0 20 -7 20 -20 0 -15 7 -20 25 -20 20 0 25 5 25 25
0 23 3 24 43 22 35 -2 43 -7 45 -25z m-868 -227 c0 -20 5 -25 25 -25 23 0 25
-4 25 -45 0 -38 3 -45 20 -45 15 0 20 -7 20 -25 0 -20 5 -25 25 -25 20 0 25 5
25 25 0 18 5 25 20 25 15 0 20 7 20 26 0 20 4 25 23 22 16 -2 23 3 25 20 5 30
52 32 52 2 0 -13 7 -20 20 -20 15 0 20 -7 20 -25 0 -20 5 -25 26 -25 21 0 25
-4 22 -22 -2 -15 -11 -24 -25 -26 -15 -2 -23 -10 -23 -23 0 -12 -7 -19 -20
-19 -17 0 -20 -7 -20 -45 0 -41 -2 -45 -25 -45 -20 0 -25 -5 -25 -25 0 -20 5
-25 25 -25 18 0 25 -5 25 -20 0 -13 7 -20 20 -20 15 0 20 -7 20 -25 0 -23 -4
-25 -46 -25 -41 0 -45 -2 -42 -22 3 -21 9 -23 71 -26 59 -3 67 -5 67 -22 0
-13 7 -20 20 -20 13 0 20 7 20 20 0 18 7 20 70 20 62 0 70 -2 70 -19 0 -13 -8
-21 -22 -23 -21 -3 -23 -9 -26 -70 -3 -60 -5 -68 -22 -68 -17 0 -20 7 -20 45
l0 45 -45 0 -45 0 0 -45 c0 -38 3 -45 20 -45 15 0 20 -7 20 -24 0 -23 -3 -24
-42 -22 -35 2 -44 6 -46 24 -5 30 -40 29 -44 0 -2 -15 -10 -23 -23 -23 -13 0
-21 8 -23 23 -5 33 -52 32 -52 -2 0 -23 -2 -23 -65 -19 -65 5 -65 5 -65 -21 0
-24 -3 -26 -45 -26 -41 0 -45 2 -45 25 0 23 4 25 45 25 38 0 45 3 45 20 0 17
-7 20 -45 20 -41 0 -45 2 -45 25 0 18 5 25 20 25 13 0 20 7 20 20 0 17 -8 19
-67 22 -63 3 -68 5 -67 26 0 17 -5 22 -23 22 -22 0 -23 3 -23 70 0 66 1 70 23
70 19 0 22 5 22 42 0 37 3 43 23 46 14 2 22 10 22 22 0 12 -8 20 -22 22 -19 2
-24 10 -26 46 -3 34 -7 42 -23 42 -14 0 -19 7 -19 25 0 20 -5 25 -25 25 -20 0
-25 5 -25 25 0 24 2 25 70 25 l70 0 0 45 0 45 45 0 c41 0 45 -2 45 -25z m1050
-90 c0 -20 5 -25 25 -25 23 0 25 -4 25 -46 0 -41 2 -45 23 -42 15 2 21 9 19
21 -2 12 4 17 23 17 23 0 25 -3 25 -45 0 -41 2 -45 25 -45 20 0 25 5 25 25 0
18 5 25 20 25 15 0 20 -7 20 -25 0 -18 -5 -25 -20 -25 -13 0 -20 -7 -20 -20 0
-13 7 -20 20 -20 15 0 20 -7 20 -25 0 -18 -5 -25 -20 -25 -17 0 -20 -7 -20
-45 0 -41 -2 -45 -25 -45 -20 0 -25 -5 -25 -25 0 -23 4 -25 44 -25 l45 0 3 48
c3 39 6 47 23 47 17 0 20 -8 23 -47 l3 -48 45 0 c37 0 44 -3 44 -20 0 -17 -7
-20 -45 -20 -41 0 -45 -2 -45 -25 0 -20 -5 -25 -25 -25 -23 0 -24 -3 -27 -67
-3 -58 -6 -68 -20 -65 -13 2 -18 -4 -18 -23 0 -18 5 -25 20 -25 15 0 20 -7 20
-25 0 -23 4 -25 45 -25 l45 0 0 -45 c0 -38 -3 -45 -20 -45 -15 0 -20 7 -20 25
0 20 -5 25 -25 25 -20 0 -25 -5 -25 -25 0 -18 -5 -25 -20 -25 -13 0 -20 -7
-20 -20 0 -15 -7 -20 -25 -20 -23 0 -25 -4 -25 -44 0 -25 -4 -47 -8 -50 -11
-7 -27 6 -35 27 -3 9 -16 17 -27 17 -15 0 -20 7 -20 25 0 20 5 25 25 25 19 0
25 5 23 18 -2 14 6 18 45 20 42 3 47 5 47 28 0 19 -5 24 -25 24 -18 0 -25 5
-25 20 0 15 7 20 25 20 20 0 25 5 25 25 0 23 -3 25 -48 25 -44 0 -49 -2 -48
-22 1 -17 -5 -24 -21 -26 -19 -3 -23 1 -23 22 0 18 6 25 23 28 19 3 22 9 22
43 0 34 3 40 23 43 16 3 22 10 22 28 0 19 5 24 25 24 18 0 25 5 25 20 0 13 7
20 20 20 15 0 20 7 20 25 0 23 -4 25 -45 25 -38 0 -45 3 -45 20 0 17 -7 20
-45 20 -38 0 -45 -3 -45 -20 0 -15 -7 -20 -25 -20 -24 0 -25 -2 -25 -70 0 -69
1 -70 26 -70 21 0 25 -4 22 -22 -2 -15 -10 -23 -23 -23 -18 0 -20 -8 -23 -67
-3 -67 -3 -68 23 -68 20 0 25 -5 25 -25 0 -20 -5 -25 -25 -25 -18 0 -25 -5
-25 -20 0 -13 -7 -20 -20 -20 -15 0 -20 -7 -20 -25 0 -18 5 -25 20 -25 13 0
20 -7 20 -19 0 -17 8 -20 48 -23 l47 -3 0 -45 c0 -39 -3 -45 -22 -48 -15 -2
-23 -10 -23 -22 0 -12 -8 -20 -22 -22 -15 -2 -24 -11 -26 -25 -2 -15 -10 -23
-23 -23 -17 0 -19 8 -19 70 0 68 -1 70 -25 70 -20 0 -25 -5 -25 -25 0 -18 -5
-25 -20 -25 -15 0 -20 7 -20 25 0 18 5 25 20 25 15 0 20 7 20 26 0 25 -1 25
-67 23 -61 -2 -68 -1 -68 17 0 15 -9 20 -45 24 -37 4 -46 9 -48 28 -3 18 1 22
22 22 19 0 26 5 26 20 0 15 -7 20 -25 20 -23 0 -25 4 -25 44 l0 45 -42 3 c-36
2 -44 7 -46 26 -3 18 1 22 22 22 21 0 26 5 26 25 0 18 5 25 20 25 15 0 20 -7
20 -25 0 -20 5 -25 25 -25 23 0 25 4 25 45 l0 45 -45 0 c-41 0 -45 2 -45 25 0
18 5 25 20 25 13 0 20 7 20 20 0 13 -7 20 -20 20 -17 0 -20 7 -20 45 0 38 3
45 20 45 15 0 20 7 20 25 0 18 -5 25 -20 25 -17 0 -20 7 -20 45 0 41 -2 45
-25 45 -18 0 -25 -5 -25 -20 0 -13 -7 -20 -20 -20 -15 0 -20 -7 -20 -26 0 -24
-2 -25 -47 -22 -40 3 -48 6 -48 23 0 17 8 20 48 23 39 3 47 6 47 23 0 12 7 19
19 19 13 0 21 8 23 23 2 14 10 22 23 22 13 0 21 -8 23 -22 2 -15 10 -23 23
-23 16 0 19 7 19 45 0 38 -3 45 -20 45 -15 0 -20 7 -20 25 0 20 -5 25 -25 25
-20 0 -25 -5 -25 -25 0 -18 -5 -25 -20 -25 -15 0 -20 7 -20 25 0 20 -5 25 -25
25 -20 0 -25 -5 -25 -25 0 -20 -5 -25 -25 -25 -18 0 -25 -5 -25 -20 0 -15 7
-20 25 -20 20 0 25 -5 25 -26 0 -21 -4 -25 -22 -22 -15 2 -24 11 -26 26 -2 14
-10 22 -23 22 -12 0 -19 7 -19 20 0 17 -7 20 -45 20 -38 0 -45 -3 -45 -20 0
-13 7 -20 20 -20 17 0 20 -7 20 -44 0 -39 3 -45 23 -48 14 -2 23 -11 25 -25 3
-21 -1 -23 -42 -23 l-46 0 0 45 c0 41 -2 45 -25 45 -23 0 -25 4 -25 45 0 41 2
45 25 45 20 0 25 5 25 25 0 23 4 25 45 25 38 0 45 3 45 20 0 13 7 20 20 20 13
0 20 -7 20 -20 0 -15 7 -20 25 -20 18 0 25 5 25 20 0 15 7 20 25 20 20 0 25 5
25 25 0 23 4 25 45 25 41 0 45 -2 45 -25 0 -18 5 -25 20 -25 15 0 20 7 20 25
0 20 5 25 25 25 20 0 25 -5 25 -25 0 -23 4 -25 45 -25 38 0 45 -3 45 -20 0
-15 7 -20 25 -20 18 0 25 5 25 20 0 13 7 20 20 20 15 0 20 7 20 25 0 20 5 25
25 25 20 0 25 5 25 25 0 18 5 25 20 25 15 0 20 -7 20 -25z m-1230 -140 c0 -18
-5 -25 -19 -25 -11 0 -23 5 -26 10 -11 18 3 40 25 40 15 0 20 -7 20 -25z
m1600 0 c0 -20 -5 -25 -25 -25 -20 0 -25 5 -25 25 0 20 5 25 25 25 20 0 25 -5
25 -25z m-780 -275 c0 -13 -7 -20 -20 -20 -13 0 -20 7 -20 20 0 13 7 20 20 20
13 0 20 -7 20 -20z m510 -90 c0 -15 -7 -20 -25 -20 -18 0 -25 5 -25 20 0 15 7
20 25 20 18 0 25 -5 25 -20z m220 -96 c0 -33 -33 -30 -38 4 -3 17 2 22 17 22
16 0 21 -6 21 -26z m-1230 -89 c0 -23 4 -25 45 -25 l45 0 0 -46 c0 -41 -2 -45
-22 -42 -15 2 -24 11 -26 26 -2 14 -10 22 -23 22 -12 0 -19 7 -19 19 0 13 -8
21 -22 23 -15 2 -24 11 -26 26 -3 18 1 22 22 22 21 0 26 -5 26 -25z m180 -20
c0 -41 2 -45 25 -45 23 0 25 -4 25 -44 0 -39 -3 -45 -22 -48 -19 -2 -24 -10
-26 -45 -3 -35 -7 -43 -23 -43 -17 0 -19 7 -19 65 0 58 2 65 20 65 15 0 20 7
20 25 0 18 -5 25 -20 25 -17 0 -20 7 -20 45 0 38 3 45 20 45 17 0 20 -7 20
-45z m-270 -25 c0 -18 -7 -20 -70 -20 -63 0 -70 2 -70 20 0 18 7 20 70 20 63
0 70 -2 70 -20z m-50 -90 c0 -17 -7 -20 -45 -20 -38 0 -45 3 -45 20 0 17 7 20
45 20 38 0 45 -3 45 -20z m1370 -45 c0 -18 -5 -25 -19 -25 -13 0 -21 -8 -23
-22 -2 -15 -10 -23 -23 -23 -13 0 -21 8 -23 23 -3 18 1 22 22 22 21 0 26 5 26
25 0 18 5 25 20 25 15 0 20 -7 20 -25z m-592 -93 c3 -19 9 -22 48 -22 l44 0 0
-71 c0 -67 -1 -70 -22 -67 -18 2 -23 10 -24 33 -2 52 -4 55 -24 55 -13 0 -20
-7 -20 -20 0 -15 -7 -20 -25 -20 -18 0 -25 5 -25 20 0 15 7 20 25 20 20 0 25
5 25 25 0 20 -5 25 -25 25 -18 0 -25 5 -25 18 0 39 43 43 48 4z m642 3 c0 -20
-5 -25 -25 -25 -18 0 -25 5 -25 18 0 10 3 22 7 25 3 4 15 7 25 7 13 0 18 -7
18 -25z m-1280 -50 c0 -20 -5 -25 -25 -25 -20 0 -25 5 -25 25 0 20 5 25 25 25
20 0 25 -5 25 -25z m1190 -45 l0 -70 -70 0 -70 0 0 70 0 70 70 0 70 0 0 -70z
m90 0 c0 -13 7 -20 19 -20 10 0 21 -9 24 -19 6 -24 0 -31 -25 -31 -13 0 -18 7
-18 25 0 20 -5 25 -25 25 -18 0 -25 5 -25 20 0 15 7 20 25 20 18 0 25 -5 25
-20z m-640 -90 c0 -15 -7 -20 -25 -20 -18 0 -25 5 -25 20 0 15 7 20 25 20 18
0 25 -5 25 -20z m500 -45 c0 -18 -5 -25 -20 -25 -15 0 -20 7 -20 25 0 18 5 25
20 25 15 0 20 -7 20 -25z"/>
<path d="M2500 4645 c0 -20 -5 -25 -25 -25 -18 0 -25 -5 -25 -20 0 -15 7 -20
25 -20 18 0 25 5 25 20 0 13 7 20 20 20 13 0 20 -7 20 -20 0 -15 7 -20 25 -20
20 0 25 -5 25 -25 0 -18 5 -25 20 -25 15 0 20 7 20 25 0 20 5 25 25 25 18 0
25 5 25 20 0 15 -7 20 -25 20 -18 0 -25 -5 -25 -20 0 -13 -7 -20 -20 -20 -17
0 -20 7 -20 45 l0 45 -45 0 c-41 0 -45 -2 -45 -25z"/>
<path d="M2180 4420 c0 -13 7 -20 20 -20 13 0 20 7 20 20 0 13 -7 20 -20 20
-13 0 -20 -7 -20 -20z"/>
<path d="M2087 4343 c-4 -3 -7 -15 -7 -25 0 -13 7 -18 25 -18 20 0 25 5 25 25
0 18 -5 25 -18 25 -10 0 -22 -3 -25 -7z"/>
<path d="M2180 4325 c0 -18 5 -25 20 -25 13 0 20 -7 20 -20 0 -17 -7 -20 -45
-20 -41 0 -45 -2 -45 -25 0 -24 2 -25 70 -25 63 0 70 -2 70 -20 0 -18 -7 -20
-70 -20 -68 0 -70 -1 -70 -25 0 -23 4 -25 45 -25 38 0 45 -3 45 -20 0 -17 -8
-19 -67 -22 l-68 -3 0 -65 c0 -60 2 -65 23 -68 17 -3 22 2 22 17 0 16 6 21 25
21 18 0 25 -5 25 -20 0 -13 7 -20 20 -20 15 0 20 -7 20 -25 0 -20 5 -25 25
-25 18 0 25 -5 25 -20 0 -13 7 -20 20 -20 15 0 20 -7 20 -25 0 -23 4 -25 45
-25 41 0 45 2 45 25 0 20 5 25 25 25 18 0 25 5 25 19 0 13 8 21 23 23 14 2 22
10 22 23 0 18 -8 20 -67 23 -60 3 -68 5 -68 22 0 13 7 20 19 20 13 0 21 8 23
23 2 14 11 23 26 25 17 3 22 9 20 25 -2 18 -11 23 -45 25 -34 3 -43 7 -43 22
0 12 8 20 23 22 14 2 22 10 22 23 0 13 -8 21 -22 23 -19 3 -23 -1 -23 -22 0
-21 -5 -26 -25 -26 -23 0 -25 4 -25 45 0 38 -3 45 -20 45 -15 0 -20 7 -20 25
0 18 5 25 20 25 13 0 20 7 20 20 0 13 -7 20 -20 20 -15 0 -20 7 -20 25 0 23
-4 25 -45 25 -41 0 -45 -2 -45 -25z m180 -320 c0 -20 -5 -25 -25 -25 -23 0
-25 -4 -25 -45 0 -38 -3 -45 -20 -45 -15 0 -20 7 -20 25 0 20 -5 25 -25 25
-18 0 -25 5 -25 20 0 13 -7 20 -20 20 -15 0 -20 7 -20 25 0 25 1 25 90 25 89
0 90 0 90 -25z m40 -135 c0 -13 -7 -20 -20 -20 -13 0 -20 7 -20 20 0 13 7 20
20 20 13 0 20 -7 20 -20z"/>
<path d="M2450 4306 c0 -43 2 -46 26 -46 23 0 25 3 22 43 -2 35 -7 43 -25 45
-21 3 -23 -1 -23 -42z"/>
<path d="M2540 3915 c0 -20 5 -25 25 -25 20 0 25 5 25 25 0 20 -5 25 -25 25
-20 0 -25 -5 -25 -25z"/>
<path d="M3228 4328 c-2 -15 -11 -24 -25 -26 -15 -2 -23 -10 -23 -23 0 -12 -7
-19 -20 -19 -15 0 -20 -7 -20 -25 0 -20 -5 -25 -25 -25 -20 0 -25 5 -25 26 0
21 -4 25 -22 22 -15 -2 -23 -10 -23 -23 0 -13 8 -21 23 -23 14 -2 22 -10 22
-22 0 -12 -8 -20 -22 -22 -15 -2 -23 -10 -23 -23 0 -13 8 -21 23 -23 14 -2 22
-10 22 -23 0 -14 7 -19 25 -19 20 0 25 -5 25 -25 0 -20 -5 -25 -25 -25 -20 0
-25 -5 -25 -26 0 -21 -4 -25 -22 -22 -15 2 -23 10 -23 23 0 13 -8 21 -22 23
-21 3 -23 -1 -23 -42 0 -39 -3 -45 -22 -48 -15 -2 -24 -11 -26 -25 -3 -19 1
-23 22 -23 21 0 26 5 26 26 0 21 4 25 23 22 14 -2 22 -10 22 -23 0 -17 8 -20
48 -23 39 -3 47 -6 47 -23 0 -14 -7 -19 -25 -19 -20 0 -25 -5 -25 -24 0 -18
-6 -25 -22 -28 -30 -4 -32 -43 -3 -43 13 0 21 -8 23 -22 3 -21 -1 -23 -42 -23
-42 0 -46 -2 -46 -25 0 -23 4 -25 45 -25 41 0 45 2 45 25 0 20 5 25 25 25 20
0 25 -5 25 -25 0 -18 5 -25 20 -25 15 0 20 7 20 25 0 20 5 25 25 25 20 0 25 5
25 25 0 18 5 25 20 25 13 0 20 7 20 20 0 13 -7 20 -20 20 -18 0 -20 7 -20 70
0 63 2 70 20 70 13 0 20 7 20 20 0 15 7 20 25 20 20 0 25 5 25 25 0 20 -5 25
-25 25 -20 0 -25 -5 -25 -25 0 -18 -5 -25 -20 -25 -18 0 -20 7 -20 70 0 68 -1
70 -25 70 -20 0 -25 5 -25 25 0 18 -5 25 -20 25 -13 0 -20 7 -20 20 0 18 7 20
65 20 58 0 65 -2 65 -20 0 -15 7 -20 25 -20 18 0 25 5 25 20 0 15 -7 20 -25
20 -24 0 -25 2 -25 70 0 62 -2 70 -19 70 -13 0 -21 -8 -23 -22z m-48 -228 c0
-13 -7 -20 -20 -20 -13 0 -20 7 -20 20 0 13 7 20 20 20 13 0 20 -7 20 -20z m0
-95 c0 -20 5 -25 25 -25 18 0 25 -5 25 -20 0 -15 -7 -20 -25 -20 -20 0 -25 -5
-25 -25 0 -18 -5 -25 -20 -25 -15 0 -20 7 -20 25 0 20 -5 25 -25 25 -18 0 -25
5 -25 20 0 15 7 20 25 20 20 0 25 5 25 25 0 18 5 25 20 25 15 0 20 -7 20 -25z
m0 -180 c0 -20 5 -25 25 -25 33 0 35 -37 3 -42 -15 -2 -24 -11 -26 -25 -2 -15
-10 -23 -23 -23 -17 0 -19 8 -19 70 0 63 2 70 20 70 15 0 20 -7 20 -25z"/>
<path d="M3140 3960 c0 -13 7 -20 20 -20 13 0 20 7 20 20 0 13 -7 20 -20 20
-13 0 -20 -7 -20 -20z"/>
<path d="M2820 4280 c0 -13 7 -20 20 -20 13 0 20 7 20 20 0 13 -7 20 -20 20
-13 0 -20 -7 -20 -20z"/>
<path d="M2950 4280 c0 -15 7 -20 25 -20 18 0 25 5 25 20 0 15 -7 20 -25 20
-18 0 -25 -5 -25 -20z"/>
<path d="M3000 4190 c0 -16 5 -21 23 -18 12 2 22 10 22 18 0 8 -10 16 -22 18
-18 3 -23 -2 -23 -18z"/>
<path d="M3410 4145 c0 -23 -4 -25 -45 -25 -38 0 -45 -3 -45 -19 0 -13 8 -21
23 -23 14 -2 22 -10 22 -23 0 -13 8 -21 23 -23 20 -3 22 1 22 42 0 42 2 46 25
46 20 0 25 5 25 25 0 20 -5 25 -25 25 -20 0 -25 -5 -25 -25z"/>
<path d="M2950 4100 c0 -15 7 -20 25 -20 18 0 25 5 25 20 0 15 -7 20 -25 20
-18 0 -25 -5 -25 -20z"/>
<path d="M3500 3960 c0 -15 7 -20 25 -20 18 0 25 5 25 20 0 15 -7 20 -25 20
-18 0 -25 -5 -25 -20z"/>
<path d="M3000 3825 c0 -31 35 -35 43 -6 6 24 0 31 -25 31 -13 0 -18 -7 -18
-25z"/>
<path d="M3460 3640 c0 -13 7 -20 20 -20 13 0 20 7 20 20 0 13 -7 20 -20 20
-13 0 -20 -7 -20 -20z"/>
<path d="M3000 3595 c0 -23 4 -25 45 -25 l45 0 0 -45 0 -45 45 0 c38 0 45 -3
45 -19 0 -13 8 -21 23 -23 14 -2 23 -11 25 -25 2 -15 10 -23 22 -23 12 0 20
-8 22 -22 2 -15 11 -24 26 -26 18 -3 22 1 22 22 0 21 -5 26 -25 26 -20 0 -25
5 -25 25 0 18 -5 25 -20 25 -13 0 -20 7 -20 20 0 15 -7 20 -25 20 -20 0 -25 5
-25 25 0 18 -5 25 -20 25 -13 0 -20 7 -20 20 0 18 7 20 65 20 63 0 65 1 65 25
l0 25 -135 0 -135 0 0 -25z"/>
<path d="M3460 3320 c0 -13 7 -20 20 -20 13 0 20 7 20 20 0 13 -7 20 -20 20
-13 0 -20 -7 -20 -20z"/>
<path d="M3460 4740 l0 -160 160 0 161 0 -3 158 -3 157 -157 3 -158 3 0 -161z
m270 -5 l0 -116 -112 3 -113 3 -3 113 -3 112 116 0 115 0 0 -115z"/>
<path d="M3550 4740 l0 -71 66 3 66 3 0 65 0 65 -66 3 -66 3 0 -71z"/>
<path d="M1900 4510 c0 -15 7 -20 25 -20 18 0 25 5 25 20 0 15 -7 20 -25 20
-18 0 -25 -5 -25 -20z"/>
<path d="M2770 4465 c0 -22 4 -26 23 -23 14 2 22 10 22 23 0 13 -8 21 -22 23
-19 3 -23 -1 -23 -23z"/>
<path d="M3460 4375 c0 -18 5 -25 20 -25 15 0 20 7 20 25 0 18 -5 25 -20 25
-15 0 -20 -7 -20 -25z"/>
<path d="M3730 4190 c0 -15 7 -20 25 -20 18 0 25 5 25 20 0 15 -7 20 -25 20
-18 0 -25 -5 -25 -20z"/>
<path d="M1900 4100 c0 -15 7 -20 25 -20 18 0 25 5 25 20 0 15 -7 20 -25 20
-18 0 -25 -5 -25 -20z"/>
<path d="M3730 4100 c0 -15 7 -20 25 -20 18 0 25 5 25 20 0 15 -7 20 -25 20
-18 0 -25 -5 -25 -20z"/>
<path d="M1900 3960 c0 -15 7 -20 25 -20 18 0 25 5 25 20 0 15 -7 20 -25 20
-18 0 -25 -5 -25 -20z"/>
<path d="M3687 3843 c-4 -3 -7 -15 -7 -25 0 -13 7 -18 25 -18 20 0 25 5 25 25
0 18 -5 25 -18 25 -10 0 -22 -3 -25 -7z"/>
<path d="M2680 3595 c0 -18 5 -25 20 -25 15 0 20 7 20 25 0 18 -5 25 -20 25
-15 0 -20 -7 -20 -25z"/>
<path d="M2724 3515 c-8 -20 4 -35 27 -35 14 0 19 7 19 25 0 18 -5 25 -20 25
-11 0 -23 -7 -26 -15z"/>
<path d="M2084 3426 c-8 -21 3 -36 27 -36 15 0 20 6 17 22 -4 27 -35 37 -44
14z"/>
<path d="M1902 3183 l3 -158 158 -3 157 -3 0 161 0 160 -160 0 -161 0 3 -157z
m278 2 l0 -115 -115 0 -115 0 0 115 0 115 115 0 115 0 0 -115z"/>
<path d="M1990 3185 l0 -65 70 0 70 0 0 65 0 65 -70 0 -70 0 0 -65z"/>
<path d="M3684 3105 c-8 -20 4 -35 27 -35 14 0 19 7 19 25 0 18 -5 25 -20 25
-11 0 -23 -7 -26 -15z"/>
<path d="M3320 3045 c0 -22 4 -26 23 -23 14 2 22 10 22 23 0 13 -8 21 -22 23
-19 3 -23 -1 -23 -23z"/>
<path d="M3292 2574 c-26 -18 -30 -65 -6 -88 47 -48 123 23 82 76 -20 25 -51
30 -76 12z m70 -29 c10 -22 9 -29 -10 -47 -18 -19 -25 -20 -47 -10 -16 8 -25
20 -25 35 0 50 62 66 82 22z"/>
<path d="M2110 2575 c0 -19 53 -106 60 -99 15 15 50 104 41 104 -5 0 -16 -18
-25 -40 -9 -22 -18 -40 -21 -40 -2 0 -14 18 -25 40 -18 36 -30 49 -30 35z"/>
<path d="M2240 2534 c-21 -47 -27 -80 -11 -55 5 8 24 15 41 15 17 0 36 -7 41
-15 6 -9 9 -10 9 -2 0 19 -43 103 -52 103 -5 0 -18 -21 -28 -46z m50 -16 c0
-4 -9 -8 -21 -8 -15 0 -19 4 -15 16 3 9 6 21 6 27 1 13 30 -22 30 -35z"/>
<path d="M2342 2528 l3 -53 40 -1 c32 -1 34 -1 8 3 -32 4 -33 6 -33 54 0 28
-5 49 -11 49 -6 0 -9 -21 -7 -52z"/>
<path d="M2443 2525 c0 -33 2 -45 4 -27 2 18 2 45 0 60 -2 15 -4 0 -4 -33z"/>
<path d="M2480 2525 c0 -53 1 -55 28 -55 61 0 94 57 54 93 -10 10 -33 17 -50
17 l-32 0 0 -55z m75 25 c17 -18 17 -21 1 -45 -12 -18 -24 -25 -39 -23 -18 2
-23 11 -25 46 -3 39 -1 42 21 42 13 0 32 -9 42 -20z"/>
<path d="M2603 2525 c0 -33 2 -45 4 -27 2 18 2 45 0 60 -2 15 -4 0 -4 -33z"/>
<path d="M2653 2573 c13 -3 17 -15 17 -54 0 -27 5 -49 10 -49 6 0 10 22 10 49
0 39 4 51 18 54 9 3 -3 5 -28 5 -25 0 -37 -2 -27 -5z"/>
<path d="M2759 2551 c12 -16 21 -38 21 -49 0 -12 5 -24 10 -27 6 -4 10 6 10
24 0 16 4 33 10 36 14 9 32 45 23 45 -5 0 -16 -12 -24 -27 l-17 -26 -17 26
c-9 15 -22 27 -27 27 -5 0 0 -13 11 -29z"/>
<path d="M2911 2523 c1 -32 4 -48 6 -35 3 15 11 22 28 22 22 0 55 23 55 39 0
17 -26 31 -57 31 l-33 0 1 -57z m66 31 c7 -18 -14 -35 -37 -31 -8 1 -16 12
-18 25 -3 18 1 22 23 22 14 0 28 -7 32 -16z"/>
<path d="M3020 2525 l0 -55 43 1 42 2 -35 6 c-47 8 -55 41 -11 41 17 0 31 4
31 8 0 4 -12 8 -27 7 -18 0 -29 6 -31 17 -2 13 6 18 35 21 l38 4 -42 1 -43 2
0 -55z"/>
<path d="M3120 2525 c0 -35 4 -54 10 -50 6 3 10 13 10 21 0 21 23 17 38 -7 7
-12 16 -18 19 -15 3 3 0 13 -7 21 -11 13 -10 18 5 28 9 8 16 22 14 33 -3 15
-14 20 -47 22 l-42 3 0 -56z m75 35 c10 -16 -13 -39 -36 -37 -13 1 -19 9 -19
24 0 18 6 23 24 23 14 0 28 -5 31 -10z"/>
<path d="M3233 2525 c0 -33 2 -45 4 -27 2 18 2 45 0 60 -2 15 -4 0 -4 -33z"/>
<path d="M3400 2525 l0 -55 33 0 c54 0 82 44 57 91 -8 14 -21 19 -50 19 l-40
0 0 -55z m82 20 c9 -21 8 -28 -7 -45 -10 -11 -26 -20 -37 -20 -15 0 -18 8 -18
45 0 41 2 45 25 45 17 0 29 -8 37 -25z"/>
<path d="M3520 2480 c0 -5 5 -10 11 -10 5 0 7 5 4 10 -3 6 -8 10 -11 10 -2 0
-4 -4 -4 -10z"/>
<path d="M2321 2326 c-7 -8 -8 -17 -3 -20 6 -3 12 1 16 9 7 20 35 19 43 -1 3
-10 -8 -29 -31 -53 -20 -20 -36 -40 -36 -44 0 -4 18 -7 40 -7 22 0 40 5 40 10
0 6 -12 10 -27 10 l-27 0 28 29 c35 37 33 75 -5 79 -14 2 -31 -4 -38 -12z"/>
<path d="M2421 2321 c-17 -32 -13 -76 10 -97 22 -19 43 -13 63 19 14 22 -20
60 -46 51 -12 -4 -18 0 -18 11 0 22 27 30 47 14 14 -12 16 -12 11 1 -7 24 -55
25 -67 1z m57 -64 c4 -20 -25 -34 -40 -19 -15 15 -1 44 19 40 10 -2 19 -11 21
-21z"/>
<path d="M2610 2285 c0 -56 -12 -69 -38 -43 -9 9 -12 8 -12 -4 0 -22 37 -33
55 -18 17 14 21 120 5 120 -5 0 -10 -25 -10 -55z"/>
<path d="M2750 2275 c0 -37 4 -65 10 -65 6 0 10 28 10 65 0 37 -4 65 -10 65
-6 0 -10 -28 -10 -65z"/>
<path d="M2942 2328 c-20 -20 -14 -33 8 -13 19 17 50 15 50 -5 0 -5 -16 -27
-35 -49 -19 -21 -35 -41 -35 -45 0 -3 18 -6 40 -6 22 0 40 5 40 10 0 6 -14 10
-31 10 l-31 0 32 26 c39 34 39 77 0 82 -14 2 -31 -3 -38 -10z"/>
<path d="M3042 2328 c-15 -15 -16 -72 -2 -99 6 -10 19 -19 30 -19 24 0 40 29
40 72 0 37 -15 58 -40 58 -9 0 -21 -5 -28 -12z m49 -22 c16 -34 4 -76 -21 -76
-13 0 -22 9 -26 26 -7 28 9 74 26 74 6 0 15 -11 21 -24z"/>
<path d="M3137 2333 c-4 -3 -7 -13 -7 -22 1 -14 2 -14 14 2 19 25 46 22 46 -6
0 -14 -12 -32 -30 -45 -43 -32 -39 -52 10 -52 22 0 40 5 40 10 0 6 -15 10 -32
10 l-33 0 33 31 c33 31 36 37 26 63 -6 16 -54 22 -67 9z"/>
<path d="M3252 2300 l-34 -45 28 -5 c15 -3 30 -13 33 -22 5 -14 8 -13 18 7 6
14 7 25 3 25 -5 0 -10 19 -12 43 l-3 42 -33 -45z m25 -37 c-3 -3 -13 -3 -21
-1 -15 3 -15 6 1 28 l18 25 3 -23 c2 -13 1 -26 -1 -29z"/>
<path d="M2650 2271 c0 -45 14 -60 52 -58 26 2 28 5 28 50 0 30 -4 46 -10 42
-5 -3 -10 -22 -10 -41 0 -27 -4 -34 -20 -34 -17 0 -20 7 -20 40 0 22 -4 40
-10 40 -5 0 -10 -17 -10 -39z"/>
<path d="M2790 2303 c0 -4 8 -27 17 -51 16 -43 16 -45 -3 -59 -19 -15 -19 -15
0 -11 14 2 27 22 43 63 27 68 26 65 14 65 -5 0 -12 -13 -16 -30 -9 -41 -22
-46 -30 -10 -6 27 -25 52 -25 33z"/>
<path d="M2343 2133 c269 -2 705 -2 970 0 265 1 46 2 -488 2 -533 0 -750 -1
-482 -2z"/>
<path d="M2529 2108 c-1 -2 -2 -20 -3 -40 -3 -39 10 -51 21 -22 6 15 7 15 19
0 7 -11 15 -13 18 -7 7 11 -32 71 -46 71 -4 0 -8 -1 -9 -2z"/>
<path d="M1605 1903 c-62 -8 -141 -36 -174 -61 l-34 -25 27 -23 c14 -13 45
-28 69 -34 23 -6 50 -13 60 -16 9 -3 17 -1 17 5 0 6 -7 11 -16 11 -27 0 -115
42 -111 54 5 16 65 43 127 57 32 8 123 12 220 12 136 0 180 -4 250 -22 109
-28 201 -60 220 -76 8 -7 40 -24 70 -38 63 -30 93 -53 109 -84 14 -27 8 -31
-65 -39 -33 -4 -77 -13 -98 -21 -28 -9 -43 -10 -52 -3 -9 8 -17 6 -31 -8 -10
-11 -28 -22 -39 -26 -17 -5 -22 -14 -20 -39 l1 -32 -152 -3 c-84 -1 -153 1
-153 5 0 4 10 17 22 30 12 13 17 23 12 23 -6 0 -20 -13 -32 -30 l-23 -30 -347
-2 -347 -3 343 -2 342 -3 -38 -78 c-22 -42 -47 -105 -58 -139 -10 -35 -22 -63
-26 -63 -4 0 -12 16 -19 35 -7 19 -18 35 -25 35 -12 0 -79 -138 -71 -147 3 -3
12 4 19 16 9 15 23 21 50 21 38 0 38 0 38 -41 0 -22 5 -50 12 -62 7 -13 11
-50 9 -91 -2 -54 0 -67 11 -64 7 3 12 13 12 22 -1 11 6 16 22 16 13 0 33 9 44
20 30 30 40 25 40 -20 0 -22 5 -40 10 -40 6 0 10 9 10 20 0 26 17 25 40 -2 10
-13 22 -20 26 -16 4 4 1 14 -6 23 -11 13 -10 19 5 35 27 29 35 25 35 -20 0
-22 5 -40 10 -40 6 0 10 20 10 45 0 37 3 45 19 45 13 0 24 -14 35 -45 10 -25
24 -45 32 -45 8 0 14 2 14 4 0 2 11 29 25 60 19 42 21 56 11 56 -8 0 -21 -19
-31 -42 l-17 -43 -14 25 c-21 39 -17 46 34 65 26 9 80 35 120 56 41 22 82 39
92 39 10 0 32 17 49 38 l30 37 1 -38 c0 -24 4 -36 10 -32 6 4 10 25 8 46 -2
45 15 64 44 48 13 -7 18 -22 18 -55 0 -25 4 -43 9 -40 4 3 7 24 6 48 -2 29 -9
47 -25 60 l-23 19 20 22 c23 24 78 137 88 180 l7 27 429 0 428 0 -15 -35 c-26
-64 22 -111 105 -103 57 6 193 67 234 106 l28 27 402 5 402 5 -391 3 -391 2
19 40 c20 40 20 40 0 81 l-20 40 26 10 c51 20 79 21 110 5 41 -21 92 -21 92 0
0 9 -9 18 -20 21 -20 5 -28 23 -10 23 6 0 10 5 10 10 0 17 -50 11 -155 -19
-103 -29 -125 -30 -104 -5 22 26 -4 39 -49 26 -60 -18 -95 -72 -46 -72 29 0
11 -16 -54 -47 -37 -18 -88 -50 -112 -72 l-45 -41 -436 0 -436 0 -5 48 c-3 26
-7 53 -9 61 -3 11 10 17 50 23 30 5 56 7 57 5 2 -2 -7 -19 -21 -37 -49 -66
-25 -101 40 -60 49 32 124 70 135 70 7 0 6 -7 -1 -19 -15 -22 -5 -51 16 -51 8
0 39 14 68 30 63 35 67 36 67 10 0 -24 36 -27 66 -5 24 18 45 19 38 1 -11 -29
17 -26 61 5 37 26 47 30 60 19 19 -15 115 -3 179 24 30 12 36 13 47 0 13 -16
42 -11 114 21 28 12 57 25 65 28 30 11 -11 7 -66 -8 -56 -14 -82 -12 -55 5 23
13 5 38 -33 45 -29 6 -44 1 -105 -39 -79 -52 -101 -62 -101 -49 0 6 11 23 25
39 14 16 25 33 25 37 0 29 -165 -31 -223 -81 -9 -8 -20 -12 -25 -8 -4 4 5 18
21 31 29 25 35 45 15 45 -7 0 -55 -23 -107 -50 -96 -51 -130 -58 -76 -16 76
59 80 64 69 76 -8 8 -24 5 -60 -10 -35 -16 -54 -19 -65 -12 -20 13 -161 7
-209 -7 -64 -20 -87 -14 -133 32 -91 90 -242 161 -416 197 -76 15 -133 20
-248 19 -81 -1 -161 -4 -178 -6z m1135 -262 c0 -10 -65 -51 -81 -51 -16 0 1
20 35 41 34 21 46 24 46 10z m987 -23 c25 -24 29 -54 11 -93 -15 -34 -30 -36
-178 -33 l-124 3 43 34 c33 26 195 107 220 110 3 1 15 -9 28 -21z m-1239 -77
l5 -51 -108 0 c-58 0 -105 3 -103 8 2 4 14 24 26 44 20 32 31 38 80 48 31 6
62 13 67 14 18 6 28 -12 33 -63z m-220 -3 c-7 -13 -14 -25 -15 -27 -1 -1 -7 0
-13 4 -8 5 -6 13 6 26 24 26 37 24 22 -3z m-58 -38 c0 -5 -4 -10 -10 -10 -5 0
-10 5 -10 10 0 6 5 10 10 10 6 0 10 -4 10 -10z m-100 -28 c0 -4 -7 -18 -16
-31 -11 -15 -13 -26 -6 -33 10 -10 25 1 64 50 20 25 58 29 58 8 0 -26 23 -30
41 -8 16 20 27 22 129 22 l112 0 -7 -27 c-12 -52 -90 -178 -108 -177 -11 1
-17 -6 -17 -21 0 -33 -21 -47 -44 -29 -28 20 -53 17 -77 -7 -16 -16 -20 -28
-14 -55 5 -30 3 -35 -22 -46 -15 -7 -40 -20 -55 -31 -41 -27 -167 -68 -213
-68 -22 0 -57 2 -77 6 -25 5 -38 3 -38 -4 0 -29 -92 9 -109 46 -12 27 -14 60
-5 116 9 52 22 46 26 -10 2 -36 7 -49 21 -51 9 -2 17 1 17 7 0 6 -7 11 -15 11
-11 0 -15 11 -15 40 0 29 4 40 15 40 8 0 15 5 15 10 0 6 -6 10 -14 10 -7 0
-16 10 -19 21 -7 25 36 151 65 192 l19 27 145 0 c79 0 144 -3 144 -8z m1580 3
c0 -22 -184 -105 -233 -105 -62 0 -85 39 -51 88 14 21 22 22 150 22 74 0 134
-2 134 -5z m-2042 -260 c18 -39 15 -45 -19 -45 -26 0 -30 3 -24 18 4 9 10 25
12 35 7 24 18 21 31 -8z m662 -10 c10 -12 6 -18 -21 -34 -18 -11 -36 -18 -41
-15 -10 6 -11 48 -1 57 12 12 50 7 63 -8z m-540 -227 c0 -12 -27 -21 -44 -15
-9 4 -12 14 -9 26 4 17 8 18 29 9 13 -6 24 -15 24 -20z m115 -8 c-3 -5 -16
-10 -28 -9 -21 0 -21 1 -2 9 28 12 37 12 30 0z"/>
<path d="M1803 1255 c-11 -20 -4 -99 11 -123 9 -14 36 -16 36 -2 0 6 -7 10
-15 10 -11 0 -15 11 -15 40 0 29 4 40 15 40 8 0 15 5 15 10 0 6 -6 10 -14 10
-8 0 -16 8 -18 18 -4 15 -5 15 -15 -3z"/>
<path d="M2178 1208 l-3 -63 -32 1 c-39 2 -44 -13 -8 -22 43 -11 65 19 65 88
0 78 -18 75 -22 -4z"/>
<path d="M1876 1218 c3 -13 13 -35 20 -50 19 -36 18 -55 -3 -68 -17 -10 -16
-10 2 -8 22 3 74 98 74 133 -1 12 -10 -1 -23 -30 l-23 -49 -21 47 c-21 48 -39
65 -26 25z"/>
<path d="M2000 1130 c0 -5 5 -10 10 -10 6 0 10 5 10 10 0 6 -4 10 -10 10 -5 0
-10 -4 -10 -10z"/>
<path d="M2660 1200 c0 -40 4 -70 10 -70 6 0 10 16 10 36 l0 35 43 -3 c41 -3
42 -4 48 -43 4 -28 6 -16 6 40 0 44 -2 65 -4 48 -4 -32 -6 -33 -49 -33 -42 0
-44 1 -44 30 0 17 -4 30 -10 30 -6 0 -10 -30 -10 -70z"/>
<path d="M3322 1198 l3 -73 45 2 c35 1 50 8 67 28 30 34 29 60 -2 90 -18 19
-35 25 -70 25 l-46 0 3 -72z m98 42 c11 -11 20 -29 20 -40 0 -29 -36 -60 -70
-60 l-30 0 0 60 0 60 30 0 c17 0 39 -9 50 -20z"/>
<path d="M3594 1200 c0 -39 3 -70 8 -70 4 0 8 23 8 50 0 28 5 50 10 50 6 0 10
-3 10 -7 0 -5 20 -30 45 -58 l44 -50 -1 80 c-2 67 -2 71 -5 23 -2 -32 -7 -58
-11 -58 -4 0 -25 25 -46 55 -22 30 -44 55 -50 55 -7 0 -11 -27 -12 -70z"/>
<path d="M2482 1175 c2 -57 2 -57 5 -13 7 80 69 89 65 9 -2 -21 2 -42 8 -46
15 -10 13 90 -3 104 -7 6 -28 9 -45 8 l-32 -2 2 -60z"/>
<path d="M2827 1222 c-23 -25 -21 -58 3 -82 21 -21 37 -24 64 -14 28 11 17 21
-21 20 -28 -1 -38 3 -41 17 -3 14 4 17 42 17 50 0 60 15 28 43 -24 22 -55 21
-75 -1z m71 -19 c2 -9 -8 -13 -32 -13 -34 0 -44 8 -29 24 11 11 56 2 61 -11z"/>
<path d="M2940 1177 c0 -36 4 -56 10 -52 6 3 10 26 10 51 0 44 1 45 28 42 24
-3 27 -7 30 -45 4 -54 22 -57 22 -4 0 50 -21 72 -66 68 l-34 -2 0 -58z"/>
<path d="M3062 1175 c1 -45 2 -50 5 -20 3 28 12 46 31 62 l27 23 -33 -3 -32
-2 2 -60z"/>
<path d="M3130 1235 c0 -3 12 -29 26 -57 l26 -52 -23 -19 -24 -19 24 3 c20 3
30 18 53 73 32 79 30 105 -3 31 l-21 -48 -20 46 c-11 26 -24 47 -29 47 -5 0
-9 -2 -9 -5z"/>
<path d="M3765 1231 c-3 -5 9 -11 27 -13 17 -2 33 -9 36 -17 3 -9 -1 -11 -16
-6 -28 8 -62 -11 -62 -34 0 -29 25 -44 60 -36 28 6 30 10 30 49 0 23 -5 47
-12 54 -14 14 -54 16 -63 3z m62 -68 c6 -16 -45 -29 -59 -15 -6 6 -7 15 -3 22
9 14 57 9 62 -7z"/>
<path d="M3877 1222 c-23 -25 -21 -48 4 -73 14 -14 28 -19 45 -15 17 5 24 2
24 -8 0 -19 -26 -27 -57 -20 -18 5 -24 3 -19 -5 9 -15 69 -14 84 1 7 7 12 39
12 73 l0 60 -38 3 c-27 1 -44 -3 -55 -16z m68 -37 c0 -25 -4 -30 -24 -30 -28
0 -47 25 -38 49 5 12 16 16 34 14 24 -3 28 -8 28 -33z"/>
<path d="M4010 1229 c-12 -8 -10 -10 10 -8 42 2 50 0 50 -17 0 -11 -6 -14 -21
-9 -22 7 -59 -18 -59 -41 0 -21 35 -34 69 -28 29 6 31 10 31 48 0 23 -5 47
-12 54 -15 15 -48 15 -68 1z m58 -66 c-4 -22 -58 -31 -58 -10 0 20 10 27 37
27 18 0 24 -5 21 -17z"/>
<path d="M3480 1130 c0 -5 5 -10 10 -10 6 0 10 5 10 10 0 6 -4 10 -10 10 -5 0
-10 -4 -10 -10z"/>
<path d="M2153 1018 c-23 -37 -50 -113 -41 -117 6 -2 15 4 20 13 12 21 46 21
70 -1 29 -26 30 -10 4 50 -27 60 -40 74 -53 55z m27 -65 c0 -7 -7 -13 -15 -13
-16 0 -19 9 -9 35 5 13 8 14 15 3 5 -7 9 -19 9 -25z"/>
<path d="M2262 1013 c-32 -28 -35 -56 -11 -87 16 -21 28 -26 52 -24 17 2 32 9
35 16 3 9 -3 11 -22 6 -32 -8 -56 10 -56 42 0 30 32 49 60 34 16 -8 20 -8 20
4 0 29 -48 34 -78 9z"/>
<path d="M2360 1024 c0 -3 11 -22 25 -42 14 -20 25 -47 25 -59 0 -13 5 -23 10
-23 6 0 10 12 10 26 0 14 9 39 21 55 29 40 18 61 -11 21 l-23 -32 -19 30 c-15
26 -38 40 -38 24z"/>
<path d="M2565 1005 c-31 -30 -32 -55 -1 -84 26 -24 76 -26 84 -3 3 9 -3 11
-22 6 -32 -8 -56 10 -56 41 0 31 23 47 54 39 28 -7 37 10 10 20 -28 11 -44 6
-69 -19z"/>
<path d="M2696 1009 c-31 -25 -34 -61 -6 -89 39 -39 110 -11 110 44 0 25 -41
66 -65 66 -7 0 -24 -9 -39 -21z m69 -19 c25 -28 7 -70 -30 -70 -37 0 -55 42
-30 70 10 11 23 20 30 20 7 0 20 -9 30 -20z"/>
<path d="M2826 1023 c-10 -10 -7 -123 3 -123 6 0 11 17 13 38 l3 37 22 -34 21
-33 19 33 18 34 3 -37 c2 -21 7 -38 13 -38 12 0 12 117 0 125 -5 3 -20 -13
-32 -35 l-23 -41 -18 35 c-19 38 -32 49 -42 39z"/>
<path d="M2980 965 c0 -70 17 -90 22 -27 l3 37 14 -27 c8 -16 18 -28 22 -28 5
0 15 12 23 28 l15 27 1 -38 c0 -26 4 -37 12 -35 12 4 16 113 5 125 -3 2 -16
-11 -29 -31 -13 -20 -26 -36 -29 -36 -4 0 -12 13 -19 29 -6 16 -18 32 -26 35
-11 4 -14 -8 -14 -59z"/>
<path d="M3137 1023 c-12 -12 -8 -125 4 -121 7 2 12 28 12 61 0 58 -4 72 -16
60z"/>
<path d="M3196 1017 c-27 -20 -16 -50 22 -61 46 -13 44 -40 -3 -33 -35 6 -48
-6 -19 -17 31 -12 63 -6 74 14 14 26 7 37 -36 55 -42 17 -36 39 7 30 30 -7 41
8 13 19 -24 9 -38 7 -58 -7z"/>
<path d="M3296 1011 c-22 -24 -14 -39 31 -57 42 -18 34 -38 -13 -29 -19 3 -34
2 -34 -3 0 -22 68 -30 88 -10 22 22 13 46 -23 59 -40 15 -41 35 -1 32 29 -2
35 11 10 21 -26 10 -40 7 -58 -13z"/>
<path d="M3406 1023 c-3 -3 -6 -33 -6 -65 0 -43 3 -59 13 -55 7 2 12 25 13 61
1 54 -6 73 -20 59z"/>
<path d="M3472 1010 c-29 -27 -29 -74 0 -94 31 -22 64 -20 88 4 28 28 25 64
-6 89 -34 26 -54 26 -82 1z m73 -24 c19 -29 10 -54 -23 -63 -42 -10 -68 40
-36 71 22 22 41 20 59 -8z"/>
<path d="M3607 1024 c-11 -11 -8 -124 3 -124 6 0 10 19 10 43 l1 42 37 -43
c20 -23 40 -42 45 -42 11 0 8 130 -3 130 -5 0 -10 -19 -10 -42 l-1 -43 -37 43
c-20 24 -41 40 -45 36z"/>
<path d="M3745 1022 c-3 -3 -5 -32 -5 -64 l0 -58 45 0 c25 0 45 5 45 10 0 6
-16 10 -36 10 -28 0 -35 4 -32 17 2 11 13 17 28 18 33 0 33 19 0 20 -39 0 -32
29 8 33 17 2 32 7 32 12 0 9 -75 11 -85 2z"/>
<path d="M3860 965 c0 -37 4 -65 10 -65 6 0 10 9 10 20 0 26 17 25 40 -2 10
-13 22 -20 26 -16 4 4 1 14 -6 23 -10 13 -10 19 4 33 9 10 16 23 16 29 0 18
-29 36 -65 40 l-35 3 0 -65z m68 33 c8 -8 9 -15 1 -25 -17 -20 -49 -16 -49 5
0 32 25 43 48 20z"/>
</g>
</svg>
